<svg width="22" height="24" viewBox="0 0 22 24" fill="none" xmlns="http://www.w3.org/2000/svg">
<path d="M8.45687 3.39692C8.14751 2.55322 7.39849 2 6.56553 2H3.76332C2.69751 2 1.8335 2.9426 1.8335 4.10532C1.8335 13.9883 9.17781 22 18.2372 22C19.303 22 20.1668 21.0576 20.1668 19.8948L20.1666 16.8378C20.1666 15.9292 19.6595 15.1121 18.8861 14.7746L16.2019 13.6032C15.5072 13.3001 14.7163 13.4367 14.1415 13.9593L13.4477 14.5897C12.6384 15.3255 11.4483 15.2667 10.7033 14.454L8.75063 12.3239C8.00565 11.5112 7.95197 10.2128 8.62644 9.32988L9.20432 8.57332C9.68332 7.94626 9.80851 7.08326 9.53064 6.32542L8.45687 3.39692Z" stroke="#287878" stroke-linecap="round" stroke-linejoin="round"/>
</svg>
