<svg width="28" height="28" viewBox="0 0 28 28" fill="none" xmlns="http://www.w3.org/2000/svg">
<path fill-rule="evenodd" clip-rule="evenodd" d="M23 14C23 17.6693 19.1903 21 14 21C8.80967 21 5 17.6693 5 14C5 10.3307 8.80967 6.99998 14 6.99998C19.1903 6.99998 23 10.3307 23 14ZM24 14C24 18.4183 19.5228 22 14 22C8.47715 22 4 18.4183 4 14C4 9.58171 8.47715 5.99998 14 5.99998C19.5228 5.99998 24 9.58171 24 14ZM18 14C18 16.2091 16.2091 18 14 18C11.7909 18 10 16.2091 10 14C10 11.7908 11.7909 9.99998 14 9.99998C16.2091 9.99998 18 11.7908 18 14ZM19 14C19 16.7614 16.7614 19 14 19C11.2386 19 9 16.7614 9 14C9 11.2386 11.2386 8.99998 14 8.99998C16.7614 8.99998 19 11.2386 19 14Z" fill="white"/>
</svg>
