<svg width="611" height="336" viewBox="0 0 611 336" fill="none" xmlns="http://www.w3.org/2000/svg">
<path d="M386 267V295H442V267H386Z" fill="#D9D9D9"/>
<path d="M471.5 295V267H442V295H471.5Z" fill="#D9D9D9"/>
<path d="M497.5 295V267H483V295H497.5Z" fill="#D9D9D9"/>
<path d="M483 295V267H471.5V295H483Z" fill="#D9D9D9"/>
<path d="M526.5 295V267H510V295H526.5Z" fill="#D9D9D9"/>
<path d="M540 295V267H526.5V295H540Z" fill="#D9D9D9"/>
<path d="M553.5 295V267H540V295H553.5Z" fill="#D9D9D9"/>
<path d="M576 295V267H553.5V295H576Z" fill="#D9D9D9"/>
<path d="M594 295V267H576V295H594Z" fill="#D9D9D9"/>
<path d="M609.5 295V267H594V295H609.5Z" fill="#D9D9D9"/>
<path d="M609.5 259V230H586V259H609.5Z" fill="#D9D9D9"/>
<path d="M568.5 230V259H586V230H568.5Z" fill="#D9D9D9"/>
<path d="M553.5 230V259H568.5V230H553.5Z" fill="#D9D9D9"/>
<path d="M526.5 230V259H540V230H526.5Z" fill="#D9D9D9"/>
<path d="M540 230V259H553.5V230H540Z" fill="#D9D9D9"/>
<path d="M465 230V259H526.5V230H465Z" fill="#D9D9D9"/>
<path d="M442 230V259H465V230H442Z" fill="#D9D9D9"/>
<path d="M407.5 230V259H442V230H407.5Z" fill="#D9D9D9"/>
<path d="M393 230V259H407.5V230H393Z" fill="#D9D9D9"/>
<path d="M371 230V259H393V230H371Z" fill="#D9D9D9"/>
<path d="M371 128.5H320V211H371V128.5Z" fill="#D9D9D9"/>
<path d="M306 158H250V211H306V158Z" fill="#D9D9D9"/>
<path d="M306 89H250V143.5H306V89Z" fill="#D9D9D9"/>
<path d="M320 128.5H371V86H320V128.5Z" fill="#D9D9D9"/>
<path d="M371 2H320V86H371V2Z" fill="#D9D9D9"/>
<path d="M250 72.5H306V17.5H250V72.5Z" fill="#D9D9D9"/>
<path d="M306 2H250V17.5H306V2Z" fill="#D9D9D9"/>
<path d="M306 72.5H250V89H306V72.5Z" fill="#D9D9D9"/>
<path d="M306 143.5H250V158H306V143.5Z" fill="#D9D9D9"/>
<path d="M180 229.5V259H195.5H223V229.5H180Z" fill="#D9D9D9"/>
<path d="M166.5 229.5V259H180V229.5H166.5Z" fill="#D9D9D9"/>
<path d="M153 229.5V259H166.5V229.5H153Z" fill="#D9D9D9"/>
<path d="M140.5 229.5V259H153V229.5H140.5Z" fill="#D9D9D9"/>
<path d="M113 229.5V259H140.5V229.5H113Z" fill="#D9D9D9"/>
<path d="M69 229.5V259H113V229.5H69Z" fill="#D9D9D9"/>
<path d="M57 229.5V259H69V229.5H57Z" fill="#D9D9D9"/>
<path d="M25.5 229.5V259H57V229.5H25.5Z" fill="#D9D9D9"/>
<path d="M2 229.5V259H25.5V229.5H2Z" fill="#D9D9D9"/>
<path d="M2 266.5V295H16.5V266.5H2Z" fill="#D9D9D9"/>
<path d="M16.5 266.5V295H30.5V266.5H16.5Z" fill="#D9D9D9"/>
<path d="M30.5 266.5V295H44V266.5H30.5Z" fill="#D9D9D9"/>
<path d="M44 266.5V295H57V266.5H44Z" fill="#D9D9D9"/>
<path d="M57 266.5V295H81V266.5H57Z" fill="#D9D9D9"/>
<path d="M81 266.5V295H113V266.5H81Z" fill="#D9D9D9"/>
<path d="M113 266.5V295H126.5V266.5H113Z" fill="#D9D9D9"/>
<path d="M126.5 266.5V295H140.5V266.5H126.5Z" fill="#D9D9D9"/>
<path d="M140.5 266.5V295H153V266.5H140.5Z" fill="#D9D9D9"/>
<path d="M153 266.5V295H166.5V266.5H153Z" fill="#D9D9D9"/>
<path d="M166.5 266.5V295H183.5V266.5H166.5Z" fill="#D9D9D9"/>
<path d="M183.5 266.5V295H195.5V266.5H183.5Z" fill="#D9D9D9"/>
<path d="M195.5 266.5V295H208V266.5H195.5Z" fill="#D9D9D9"/>
<path d="M223 295V266.5H208V295H220.5H223Z" fill="#D9D9D9"/>
<path d="M250 229.5H306M250 229.5H223M250 229.5V220.25M220.5 295V333L243.5 324V295H294.5V305.5L298.5 314L306 318H329.5L335 313L339 305.5V295H386M220.5 295H223V266.5H208M220.5 295H208M371 230H320V220.5M371 230V259H393M371 230V220.5M371 230H393M2 259V229.5H25.5M2 259V266.5M2 259H25.5M306 2H250V17.5M306 2H320M306 2V17.5M306 229.5V259H223M306 229.5V220.25M320 2H371V86M320 2V86M2 266.5V295H16.5M2 266.5H16.5M386 295V267H442M386 295H442M609.5 267V295H594M609.5 267V259M609.5 267H594M609.5 259V230H586M609.5 259H586M25.5 229.5V259M25.5 229.5H57M25.5 259H57M57 229.5V259M57 229.5H69M57 259H69M69 229.5V259M69 229.5H113M69 259H113M113 229.5V259M113 229.5H140.5M113 259H140.5M140.5 259V229.5M140.5 259H153M140.5 229.5H153M153 259V229.5M153 259H166.5M153 229.5H166.5M166.5 259V229.5M166.5 259H180M166.5 229.5H180M180 259V229.5M180 259H195.5M180 229.5H223M195.5 229.5V259M195.5 259H223M223 259V229.5M16.5 266.5V295M16.5 266.5H30.5M16.5 295H30.5M30.5 295V266.5M30.5 295H44M30.5 266.5H44M44 266.5V295M44 266.5H57M44 295H57M57 295V266.5M57 295H81M57 266.5H81M81 266.5V295M81 266.5H113M81 295H113M113 295V266.5M113 295H126.5M113 266.5H126.5M126.5 266.5V295M126.5 266.5H140.5M126.5 295H140.5M140.5 295V266.5M140.5 295H153M140.5 266.5H153M153 266.5V295M153 266.5H166.5M153 295H166.5M166.5 266.5V295M166.5 266.5H183.5M166.5 295H183.5M183.5 295V266.5M183.5 295H195.5M183.5 266.5H195.5M195.5 266.5V295M195.5 266.5H208M195.5 295H208M208 295V266.5M250 72.5H306M250 72.5V89M250 72.5V17.5M306 72.5V89M306 72.5V17.5M250 89H306M250 89V143.5M306 89V143.5M250 143.5H306M250 143.5V158M306 143.5V158M250 158H306M250 158V211M306 158V211M320 128.5H371M320 128.5V86M320 128.5V211M371 128.5V86M371 128.5V211M371 86H320M250 17.5H306M250 211H306M250 211V220.25M306 211V220.25M250 220.25H306M320 211H371M320 211V220.5M371 211V220.5M320 220.5H371M393 259V230M393 259H407.5M393 230H407.5M407.5 230V259M407.5 230H442M407.5 259H442M442 259V230M442 259H465M442 230H465M465 230V259M465 230H526.5M465 259H526.5M526.5 259V230M526.5 259H540M526.5 230H540M540 230V259M540 230H553.5M540 259H553.5M553.5 259V230M553.5 259H568.5M553.5 230H568.5M568.5 230V259M568.5 230H586M568.5 259H586M586 259V230M594 267V295M594 267H576M594 295H576M576 267V295M576 267H553.5M576 295H553.5M553.5 295V267M553.5 295H540M553.5 267H540M540 267V295M540 267H526.5M540 295H526.5M526.5 295V267M526.5 295H510M526.5 267H510M510 267V295M510 267H497.5M510 295H497.5M497.5 295V267M497.5 295H483M497.5 267H483M483 267V295M483 267H471.5M483 295H471.5M471.5 295V267M471.5 295H442M471.5 267H442M442 267V295" stroke="black" stroke-width="3"/>
</svg>
