<svg width="614" height="337" viewBox="0 0 614 337" fill="none" xmlns="http://www.w3.org/2000/svg">
<path d="M321.5 211H373.5V128.5H321.5V211Z" fill="#D9D9D9"/>
<path d="M321.5 128.5H373.5V88H321.5V128.5Z" fill="#D9D9D9"/>
<path d="M373.5 2H321.5V88H373.5V2Z" fill="#D9D9D9"/>
<path d="M251.5 72.25H306V17.5H251.5V72.25Z" fill="#D9D9D9"/>
<path d="M306 2H251.5V17.5H306V2Z" fill="#D9D9D9"/>
<path d="M251.5 142.5H306V88H251.5V142.5Z" fill="#D9D9D9"/>
<path d="M306 72.25H251.5V88H306V72.25Z" fill="#D9D9D9"/>
<path d="M251.5 156H306V142.5H251.5V156Z" fill="#D9D9D9"/>
<path d="M251.5 211H306V156H251.5V211Z" fill="#D9D9D9"/>
<path d="M293.5 230H251.5H223V259H293.5V230Z" fill="#D9D9D9"/>
<path d="M223 259V230H196.5V259H223Z" fill="#D9D9D9"/>
<path d="M196.5 259V230H181V259H196.5Z" fill="#D9D9D9"/>
<path d="M181 259V230H168.5V259H181Z" fill="#D9D9D9"/>
<path d="M168.5 259V230H154.5V259H168.5Z" fill="#D9D9D9"/>
<path d="M154.5 259V230H141.5V259H154.5Z" fill="#D9D9D9"/>
<path d="M141.5 259V230H114V259H141.5Z" fill="#D9D9D9"/>
<path d="M114 259V230H70.5V244.5V259H114Z" fill="#D9D9D9"/>
<path d="M58 244.5V230H27V259H58V244.5Z" fill="#D9D9D9"/>
<path d="M2 230V259H27V230H2Z" fill="#D9D9D9"/>
<path d="M2 266.5V296.5H18V266.5H2Z" fill="#D9D9D9"/>
<path d="M18 266.5V296.5H31.5V266.5H18Z" fill="#D9D9D9"/>
<path d="M31.5 266.5V296.5H44.5V266.5H31.5Z" fill="#D9D9D9"/>
<path d="M44.5 266.5V296.5H58V266.5H44.5Z" fill="#D9D9D9"/>
<path d="M58 266.5V296.5H82.5V266.5H58Z" fill="#D9D9D9"/>
<path d="M82.5 266.5V296.5H114V266.5H82.5Z" fill="#D9D9D9"/>
<path d="M114 266.5V296.5H127.5V266.5H114Z" fill="#D9D9D9"/>
<path d="M142 266.5V296.5H154.5V266.5H142Z" fill="#D9D9D9"/>
<path d="M127.5 266.5V296.5H142V266.5H127.5Z" fill="#D9D9D9"/>
<path d="M154.5 266.5V296.5H170V266.5H154.5Z" fill="#D9D9D9"/>
<path d="M170 266.5V296.5H184V266.5H170Z" fill="#D9D9D9"/>
<path d="M184 266.5V296.5H196.5V266.5H184Z" fill="#D9D9D9"/>
<path d="M196.5 266.5V296.5H210.75V266.5H196.5Z" fill="#D9D9D9"/>
<path d="M221.5 296.5H225V266.5H210.75V296.5H221.5Z" fill="#D9D9D9"/>
<path d="M409.5 230V259.5H442.5V230H409.5Z" fill="#D9D9D9"/>
<path d="M442.5 230V259.5H465V230H442.5Z" fill="#D9D9D9"/>
<path d="M465 230V259.5H526.5V230H465Z" fill="#D9D9D9"/>
<path d="M526.5 230V259.5H541V230H526.5Z" fill="#D9D9D9"/>
<path d="M541 230V259.5H553.5V230H541Z" fill="#D9D9D9"/>
<path d="M553.5 230V259.5H571.5V230H553.5Z" fill="#D9D9D9"/>
<path d="M571.5 230V259.5H586.5V230H571.5Z" fill="#D9D9D9"/>
<path d="M611.046 259.5L611.5 230H586.5V259.5H611.046Z" fill="#D9D9D9"/>
<path d="M610.5 295L610.938 266.5H596V295.054L610.5 295Z" fill="#D9D9D9"/>
<path d="M596 295.054V266.5H576.5V295.126L596 295.054Z" fill="#D9D9D9"/>
<path d="M576.5 295.126V266.5H555V295.206L576.5 295.126Z" fill="#D9D9D9"/>
<path d="M555 295.206V266.5H541.5V295.256L555 295.206Z" fill="#D9D9D9"/>
<path d="M541.5 295.256V266.5H526V295.313L541.5 295.256Z" fill="#D9D9D9"/>
<path d="M526 295.313V266.5H512V295.365L526 295.313Z" fill="#D9D9D9"/>
<path d="M512 295.365V266.5H498V295.417L512 295.365Z" fill="#D9D9D9"/>
<path d="M498 295.417V266.5H484.5V295.467L498 295.417Z" fill="#D9D9D9"/>
<path d="M484.5 295.467V266.5H472.5V295.511L484.5 295.467Z" fill="#D9D9D9"/>
<path d="M472.5 295.511V266.5H444.5V295.615L472.5 295.511Z" fill="#D9D9D9"/>
<path d="M387 266.5V295.828L444.5 295.615V266.5H387Z" fill="#D9D9D9"/>
<path d="M395 230V259.5H409.5V230H395Z" fill="#D9D9D9"/>
<path d="M373.5 230V259.5H395V230H373.5Z" fill="#D9D9D9"/>
<path d="M221.5 296.5V334L244.5 325V296.5M221.5 296.5H225V266.5H210.75M221.5 296.5H210.75M244.5 296.5H295.5V305.5L300.5 314L307 318H331.5L336.5 312.5L340.5 306.5V296L387 295.828M244.5 296.5V282.5M373.5 230V259.5H395M373.5 230H409.5M373.5 230H321.5M373.5 230V220M373.5 230H395M251.5 230H293.5M251.5 230H223M251.5 230V220.5M2 266.5V296.5H18M2 266.5V259M2 266.5H18M2 259V230H27M2 259H27M306 230V259H293.5M306 230H293.5M306 230H321.5M306 230V220.5M293.5 230V259M293.5 259H223M223 230V259M223 230H196.5M223 259H196.5M196.5 230V259M196.5 230H181M196.5 259H181M181 259V230M181 259H168.5M181 230H168.5M168.5 259V230M168.5 259H154.5M168.5 230H154.5M154.5 230V259M154.5 230H141.5M154.5 259H141.5M141.5 259V230M141.5 259H114M141.5 230H114M114 230V259M114 230H70.5M114 259H70.5M70.5 259H58M70.5 259V244.5M70.5 230H58M70.5 230V244.5M58 230V244.5M58 230H27M58 259V244.5M58 259H27M58 244.5H70.5M27 259V230M18 296.5V266.5M18 296.5H31.5M18 266.5H31.5M31.5 266.5V296.5M31.5 266.5H44.5M31.5 296.5H44.5M44.5 296.5V266.5M44.5 296.5H58M44.5 266.5H58M58 266.5V296.5M58 266.5H82.5M58 296.5H82.5M82.5 266.5V296.5M82.5 266.5H114M82.5 296.5H114M114 296.5V266.5M114 296.5H127.5M114 266.5H127.5M127.5 266.5V296.5M127.5 266.5H142M127.5 296.5H142M142 296.5V266.5M142 296.5H154.5M142 266.5H154.5M154.5 266.5V296.5M154.5 266.5H170M154.5 296.5H170M170 296.5V266.5M170 296.5H184M170 266.5H184M184 266.5V296.5M184 266.5H196.5M184 296.5H196.5M196.5 296.5V266.5M196.5 296.5H210.75M196.5 266.5H210.75M210.75 266.5V296.5M611.046 259.5L611.5 230H586.5M611.046 259.5L610.938 266.5M611.046 259.5H586.5M610.938 266.5L610.5 295L596 295.054M610.938 266.5H596M387 295.828V266.5H444.5M387 295.828L444.5 295.615M395 230V259.5M395 230H409.5M395 259.5H409.5M409.5 259.5V230M409.5 259.5H442.5M409.5 230H442.5M442.5 230V259.5M442.5 230H465M442.5 259.5H465M465 259.5V230M465 259.5H526.5M465 230H526.5M526.5 230V259.5M526.5 230H541M526.5 259.5H541M541 230V259.5M541 230H553.5M541 259.5H553.5M553.5 259.5V230M553.5 259.5H571.5M553.5 230H571.5M571.5 230V259.5M571.5 230H586.5M571.5 259.5H586.5M586.5 259.5V230M596 295.054V266.5M596 295.054L576.5 295.126M596 266.5H576.5M576.5 295.126V266.5M576.5 295.126L555 295.206M576.5 266.5H555M555 266.5V295.206M555 266.5H541.5M555 295.206L541.5 295.256M541.5 295.256V266.5M541.5 295.256L526 295.313M541.5 266.5H526M526 266.5V295.313M526 266.5H512M526 295.313L512 295.365M512 295.365V266.5M512 295.365L498 295.417M512 266.5H498M498 266.5V295.417M498 266.5H484.5M498 295.417L484.5 295.467M484.5 295.467V266.5M484.5 295.467L472.5 295.511M484.5 266.5H472.5M472.5 266.5V295.511M472.5 266.5H444.5M472.5 295.511L444.5 295.615M444.5 295.615V266.5M306 2H251.5V17.5M306 2H321.5M306 2V17.5M321.5 2H373.5V88M321.5 2V88M321.5 230V220M321.5 220H373.5M321.5 220V211M373.5 220V211M373.5 211H321.5M373.5 211V128.5M321.5 211V128.5M306 211H251.5M306 211V220.5M306 211V156M251.5 211V220.5M251.5 211V156M306 220.5H251.5M251.5 156H306M251.5 156V142.5M306 156V142.5M306 142.5H251.5M306 142.5V88M251.5 142.5V88M321.5 128.5H373.5M321.5 128.5V88M373.5 128.5V88M321.5 88H373.5M306 72.25H251.5M306 72.25V88M306 72.25V17.5M251.5 72.25V88M251.5 72.25V17.5M251.5 88H306M306 17.5H251.5" stroke="black" stroke-width="3"/>
</svg>
