<svg width="260" height="102" viewBox="0 0 260 102" fill="none" xmlns="http://www.w3.org/2000/svg">
<path d="M24 12V11.994C24 8.443 22.454 5.254 19.999 3.061L19.987 3.051C19.9567 3.01831 19.9228 2.98913 19.886 2.964L19.884 2.963C17.7036 1.04853 14.8996 -0.00465514 11.998 0.000999213C8.966 0.000999213 6.198 1.127 4.088 2.985L4.101 2.974C4.07557 2.99329 4.05212 3.01506 4.031 3.039C2.76253 4.16219 1.7472 5.54309 1.05226 7.08829C0.357326 8.63349 -0.00134689 10.3087 3.80066e-06 12.003C3.80066e-06 15.553 1.544 18.742 3.997 20.936L4.009 20.946C4.04077 20.982 4.07631 21.0145 4.115 21.043L4.117 21.044C6.29684 22.9556 9.09869 24.0073 11.998 24.002C14.9109 24.0065 17.7247 22.9451 19.909 21.018L19.896 21.029C21.1865 19.9071 22.2209 18.521 22.9293 16.9647C23.6377 15.4083 24.0035 13.718 24.002 12.008V12.001L24 12ZM19.538 19.805C18.9436 19.3242 18.3043 18.9015 17.629 18.543L17.564 18.511C18.177 16.744 18.546 14.707 18.581 12.588V12.572H22.842C22.6983 15.3134 21.5184 17.8978 19.541 19.802L19.538 19.805ZM12.572 18.3C13.855 18.369 15.054 18.651 16.16 19.11L16.088 19.084C15.202 21.104 13.955 22.492 12.572 22.797V18.3ZM12.572 17.156V12.572H17.44C17.4014 14.4703 17.0722 16.3514 16.464 18.15L16.503 18.019C15.2615 17.5087 13.941 17.2171 12.6 17.157L12.573 17.156H12.572ZM12.572 11.428V6.844C13.9492 6.78115 15.305 6.47967 16.579 5.953L16.5 5.982C17.055 7.601 17.396 9.467 17.44 11.407V11.428H12.572ZM12.572 5.7V1.205C13.955 1.51 15.202 2.892 16.088 4.918C15.054 5.348 13.855 5.629 12.601 5.699L12.572 5.7ZM15.426 1.7C16.6044 2.09303 17.7064 2.68566 18.684 3.452L18.661 3.434C18.218 3.782 17.721 4.11 17.197 4.395L17.141 4.423C16.7176 3.42373 16.1354 2.49947 15.417 1.686L15.426 1.697V1.7ZM11.426 1.208V5.7C10.1925 5.63707 8.97891 5.3631 7.838 4.89L7.91 4.916C8.8 2.896 10.045 1.509 11.428 1.204L11.426 1.208ZM6.858 4.42C6.31593 4.12836 5.79943 3.79149 5.314 3.413L5.338 3.431C6.28714 2.68715 7.35472 2.1084 8.496 1.719L8.572 1.696C7.87242 2.48743 7.30238 3.38451 6.883 4.354L6.858 4.42ZM11.428 6.843V11.427H6.56C6.604 9.466 6.945 7.6 7.539 5.85L7.5 5.981C8.74106 6.49047 10.0608 6.78175 11.401 6.842L11.428 6.843ZM11.428 12.571V17.155C10.0508 17.2179 8.69504 17.5193 7.421 18.046L7.5 18.017C6.945 16.399 6.604 14.532 6.56 12.592V12.571H11.428ZM11.428 18.299V22.794C10.045 22.489 8.798 21.107 7.912 19.081C8.946 18.651 10.145 18.371 11.399 18.301L11.428 18.299ZM8.578 22.299C7.39996 21.9071 6.29794 21.3159 5.32 20.551L5.344 20.569C5.787 20.221 6.284 19.893 6.808 19.608L6.864 19.58C7.28389 20.5797 7.86606 21.5031 8.587 22.313L8.578 22.303V22.299ZM17.142 19.579C17.722 19.894 18.219 20.221 18.686 20.586L18.662 20.568C17.7129 21.3118 16.6453 21.8906 15.504 22.28L15.428 22.303C16.1276 21.5119 16.6976 20.6152 17.117 19.646L17.142 19.581V19.579ZM22.842 11.428H18.581C18.5503 9.35895 18.1933 7.30771 17.523 5.35L17.564 5.488C18.2704 5.11606 18.9392 4.67668 19.561 4.176L19.537 4.194C21.5103 6.09103 22.6906 8.66584 22.84 11.399L22.841 11.427L22.842 11.428ZM4.462 4.195C5.038 4.663 5.685 5.092 6.371 5.457L6.436 5.489C5.823 7.256 5.454 9.293 5.419 11.412V11.428H1.157C1.3007 8.6866 2.48065 6.10221 4.458 4.198L4.462 4.195ZM1.158 12.572H5.419C5.44966 14.641 5.80672 16.6923 6.477 18.65L6.436 18.512C5.685 18.911 5.039 19.34 4.439 19.824L4.463 19.806C2.48974 17.909 1.30937 15.3342 1.16 12.601L1.159 12.573L1.158 12.572Z" fill="white"/>
<path d="M12 76C8.74 76 8.333 76.015 7.053 76.072C5.775 76.132 4.905 76.333 4.14 76.63C3.351 76.936 2.681 77.347 2.014 78.014C1.347 78.681 0.935 79.35 0.63 80.14C0.333 80.905 0.131 81.775 0.072 83.053C0.012 84.333 0 84.74 0 88C0 91.26 0.015 91.667 0.072 92.947C0.132 94.224 0.333 95.095 0.63 95.86C0.931292 96.6609 1.4036 97.3864 2.014 97.986C2.61328 98.5968 3.3389 99.0692 4.14 99.37C4.906 99.666 5.776 99.869 7.053 99.928C8.333 99.988 8.74 100 12 100C15.26 100 15.667 99.985 16.947 99.928C18.224 99.868 19.095 99.666 19.86 99.37C20.6607 99.0683 21.3861 98.5961 21.986 97.986C22.597 97.3869 23.0694 96.6612 23.37 95.86C23.666 95.095 23.869 94.224 23.928 92.947C23.988 91.667 24 91.26 24 88C24 84.74 23.985 84.333 23.928 83.053C23.868 81.776 23.666 80.904 23.37 80.14C23.0686 79.3392 22.5963 78.6137 21.986 78.014C21.3872 77.4026 20.6614 76.9302 19.86 76.63C19.095 76.333 18.224 76.131 16.947 76.072C15.667 76.012 15.26 76 12 76ZM12 78.16C15.203 78.16 15.585 78.176 16.85 78.231C18.02 78.286 18.655 78.48 19.077 78.646C19.639 78.863 20.037 79.123 20.459 79.542C20.878 79.962 21.138 80.361 21.355 80.923C21.519 81.345 21.715 81.98 21.768 83.15C21.825 84.416 21.838 84.796 21.838 88C21.838 91.204 21.823 91.585 21.764 92.85C21.703 94.02 21.508 94.655 21.343 95.077C21.1478 95.5978 20.8409 96.0695 20.444 96.459C20.0561 96.8563 19.5847 97.1624 19.064 97.355C18.644 97.519 17.999 97.715 16.829 97.768C15.555 97.825 15.18 97.838 11.97 97.838C8.759 97.838 8.384 97.823 7.111 97.764C5.94 97.703 5.295 97.508 4.875 97.343C4.3539 97.1502 3.88268 96.843 3.496 96.444C3.09458 96.0587 2.78671 95.5867 2.596 95.064C2.431 94.644 2.237 93.999 2.176 92.829C2.131 91.569 2.115 91.18 2.115 87.985C2.115 84.789 2.131 84.399 2.176 83.124C2.237 81.954 2.431 81.31 2.596 80.89C2.806 80.32 3.075 79.93 3.496 79.509C3.915 79.09 4.306 78.82 4.875 78.611C5.295 78.445 5.926 78.25 7.096 78.19C8.371 78.145 8.746 78.13 11.955 78.13L12 78.16ZM12 81.838C11.1908 81.838 10.3895 81.9974 9.6419 82.3071C8.8943 82.6167 8.215 83.0706 7.64281 83.6428C7.07061 84.215 6.61672 84.8943 6.30705 85.6419C5.99738 86.3895 5.838 87.1908 5.838 88C5.838 88.8092 5.99738 89.6105 6.30705 90.3581C6.61672 91.1057 7.07061 91.785 7.64281 92.3572C8.215 92.9294 8.8943 93.3833 9.6419 93.6929C10.3895 94.0026 11.1908 94.162 12 94.162C13.6343 94.162 15.2016 93.5128 16.3572 92.3572C17.5128 91.2016 18.162 89.6343 18.162 88C18.162 86.3657 17.5128 84.7984 16.3572 83.6428C15.2016 82.4872 13.6343 81.838 12 81.838ZM12 92C9.79 92 8 90.21 8 88C8 85.79 9.79 84 12 84C14.21 84 16 85.79 16 88C16 90.21 14.21 92 12 92ZM19.846 81.595C19.8321 81.9676 19.6743 82.3204 19.4058 82.5791C19.1373 82.8378 18.7789 82.9823 18.406 82.9823C18.0331 82.9823 17.6747 82.8378 17.4062 82.5791C17.1377 82.3204 16.9799 81.9676 16.966 81.595C16.966 81.2131 17.1177 80.8468 17.3878 80.5768C17.6578 80.3067 18.0241 80.155 18.406 80.155C18.7879 80.155 19.1542 80.3067 19.4242 80.5768C19.6943 80.8468 19.846 81.2131 19.846 81.595Z" fill="white"/>
<path d="M67.8327 88.0001C67.8327 82.0201 62.9793 77.1667 56.9993 77.1667C51.0193 77.1667 46.166 82.0201 46.166 88.0001C46.166 93.2434 49.8927 97.6092 54.8327 98.6167V91.2501H52.666V88.0001H54.8327V85.2917C54.8327 83.2009 56.5335 81.5001 58.6243 81.5001H61.3327V84.7501H59.166C58.5702 84.7501 58.0827 85.2376 58.0827 85.8334V88.0001H61.3327V91.2501H58.0827V98.7792C63.5535 98.2376 67.8327 93.6226 67.8327 88.0001Z" fill="white"/>
<path d="M117.958 81.9187C118.178 82.552 117.46 84.0067 115.806 86.2827C115.576 86.5994 115.266 87.02 114.874 87.5445C114.491 88.0491 114.228 88.4054 114.085 88.6132C113.941 88.821 113.795 89.0659 113.647 89.348C113.499 89.63 113.442 89.8378 113.475 89.9714C113.508 90.105 113.571 90.2757 113.662 90.4835C113.752 90.6913 113.908 90.9041 114.128 91.1218C114.348 91.3395 114.62 91.6017 114.945 91.9085C114.984 91.9283 115.007 91.9481 115.017 91.9679C116.365 93.2642 117.279 94.3577 117.757 95.2484C117.785 95.2978 117.817 95.3597 117.85 95.4339C117.883 95.5081 117.917 95.6392 117.95 95.8273C117.984 96.0153 117.982 96.1835 117.943 96.332C117.905 96.4804 117.785 96.6165 117.585 96.7402C117.384 96.8639 117.102 96.9257 116.738 96.9257L113.066 96.9851C112.837 97.0346 112.569 97.0098 112.263 96.9109C111.957 96.8119 111.708 96.703 111.517 96.5843L111.23 96.4062C110.943 96.1984 110.609 95.8817 110.226 95.4562C109.844 95.0307 109.516 94.6472 109.243 94.3058C108.971 93.9644 108.679 93.6774 108.368 93.4448C108.058 93.2123 107.788 93.1356 107.558 93.2148C107.529 93.2247 107.491 93.242 107.443 93.2667C107.395 93.2915 107.314 93.3632 107.199 93.482C107.085 93.6007 106.982 93.7467 106.891 93.9198C106.8 94.093 106.719 94.3503 106.647 94.6917C106.575 95.0331 106.544 95.4166 106.554 95.8421C106.554 95.9905 106.537 96.1266 106.504 96.2503C106.47 96.374 106.434 96.4655 106.396 96.5249L106.339 96.5991C106.167 96.7872 105.913 96.896 105.579 96.9257H103.929C103.25 96.9653 102.552 96.8836 101.835 96.6808C101.117 96.4779 100.489 96.2157 99.9484 95.8941C99.4081 95.5725 98.9156 95.2459 98.4709 94.9144C98.0263 94.5829 97.6892 94.2984 97.4597 94.0609L97.1011 93.7046C97.0054 93.6057 96.8739 93.4572 96.7066 93.2593C96.5392 93.0614 96.1974 92.6111 95.681 91.9085C95.1646 91.2059 94.6577 90.4588 94.1605 89.6671C93.6632 88.8754 93.0775 87.8314 92.4033 86.5351C91.7291 85.2387 91.1051 83.8929 90.5314 82.4976C90.474 82.3392 90.4453 82.2057 90.4453 82.0968C90.4453 81.9879 90.4597 81.9088 90.4883 81.8593L90.5457 81.7702C90.6892 81.5822 90.9617 81.4882 91.3633 81.4882L95.2937 81.4585C95.4084 81.4783 95.5184 81.5105 95.6236 81.555C95.7288 81.5995 95.8053 81.6416 95.8531 81.6812L95.9248 81.7257C96.0778 81.8346 96.1926 81.9929 96.2691 82.2007C96.4603 82.6955 96.6803 83.2076 96.9289 83.737C97.1776 84.2665 97.3736 84.6697 97.517 84.9468L97.7465 85.3773C98.0239 85.971 98.2916 86.4856 98.5498 86.921C98.808 87.3564 99.0399 87.6954 99.2455 87.9378C99.4511 88.1803 99.6495 88.3708 99.8408 88.5093C100.032 88.6478 100.195 88.7171 100.329 88.7171C100.462 88.7171 100.591 88.6924 100.716 88.6429C100.735 88.633 100.759 88.6083 100.788 88.5687C100.816 88.5291 100.874 88.4202 100.96 88.2421C101.046 88.064 101.11 87.8314 101.153 87.5445C101.196 87.2575 101.242 86.8567 101.29 86.3421C101.337 85.8275 101.337 85.209 101.29 84.4866C101.27 84.0908 101.227 83.7296 101.16 83.403C101.094 83.0765 101.027 82.8489 100.96 82.7202L100.874 82.5421C100.635 82.2057 100.228 81.9929 99.6543 81.9038C99.53 81.884 99.5539 81.7653 99.7261 81.5476C99.8791 81.3596 100.061 81.2111 100.271 81.1023C100.778 80.845 101.921 80.7262 103.699 80.746C104.484 80.7559 105.129 80.8202 105.636 80.939C105.827 80.9885 105.987 81.0553 106.116 81.1394C106.246 81.2235 106.344 81.3422 106.41 81.4956C106.477 81.649 106.528 81.8073 106.561 81.9706C106.595 82.1339 106.611 82.359 106.611 82.646C106.611 82.933 106.607 83.2051 106.597 83.4624C106.587 83.7197 106.575 84.0685 106.561 84.5089C106.547 84.9493 106.54 85.3575 106.54 85.7335C106.54 85.8424 106.535 86.0502 106.525 86.357C106.516 86.6637 106.513 86.9012 106.518 87.0695C106.523 87.2377 106.54 87.4381 106.568 87.6706C106.597 87.9032 106.652 88.0961 106.733 88.2495C106.815 88.4029 106.922 88.5241 107.056 88.6132C107.132 88.633 107.214 88.6528 107.3 88.6726C107.386 88.6924 107.51 88.6379 107.673 88.5093C107.835 88.3807 108.017 88.2099 108.218 87.9972C108.419 87.7844 108.667 87.4529 108.964 87.0027C109.26 86.5524 109.585 86.0205 109.939 85.407C110.513 84.3778 111.025 83.2645 111.474 82.0671C111.512 81.9682 111.56 81.8816 111.617 81.8073C111.675 81.7331 111.727 81.6812 111.775 81.6515L111.833 81.607L111.904 81.5698L112.091 81.5253L112.378 81.5179L116.509 81.4882C116.882 81.4387 117.188 81.4511 117.427 81.5253C117.666 81.5995 117.814 81.6812 117.872 81.7702L117.958 81.9187Z" fill="white"/>
<path d="M162.331 81.4999C161.497 81.8791 160.598 82.1283 159.666 82.2474C160.62 81.6733 161.356 80.7633 161.703 79.6691C160.804 80.2108 159.807 80.5899 158.756 80.8066C157.9 79.8749 156.698 79.3333 155.333 79.3333C152.787 79.3333 150.707 81.4133 150.707 83.9808C150.707 84.3491 150.75 84.7066 150.826 85.0424C146.97 84.8474 143.535 82.9949 141.25 80.1891C140.849 80.8716 140.621 81.6733 140.621 82.5183C140.621 84.1324 141.434 85.5624 142.69 86.3749C141.921 86.3749 141.206 86.1583 140.578 85.8333V85.8658C140.578 88.1191 142.181 90.0041 144.305 90.4266C143.623 90.6131 142.907 90.6391 142.214 90.5024C142.508 91.4259 143.084 92.234 143.862 92.8131C144.639 93.3922 145.578 93.7131 146.547 93.7308C144.904 95.0312 142.868 95.7342 140.773 95.7241C140.405 95.7241 140.036 95.7024 139.668 95.6591C141.726 96.9808 144.175 97.7499 146.796 97.7499C155.333 97.7499 160.024 90.6649 160.024 84.5224C160.024 84.3166 160.024 84.1216 160.013 83.9158C160.923 83.2658 161.703 82.4424 162.331 81.4999Z" fill="white"/>
<path d="M195.667 91.4999L201.722 87.9999L195.667 84.4999V91.4999ZM209.154 82.3649C209.306 82.9133 209.411 83.6483 209.481 84.5816C209.562 85.5149 209.597 86.3199 209.597 87.0199L209.667 87.9999C209.667 90.5549 209.481 92.4333 209.154 93.6349C208.862 94.6849 208.186 95.3616 207.136 95.6533C206.587 95.8049 205.584 95.9099 204.044 95.9799C202.527 96.0616 201.139 96.0966 199.856 96.0966L198.001 96.1666C193.112 96.1666 190.067 95.9799 188.866 95.6533C187.816 95.3616 187.139 94.6849 186.847 93.6349C186.696 93.0866 186.591 92.3516 186.521 91.4183C186.439 90.4849 186.404 89.6799 186.404 88.9799L186.334 87.9999C186.334 85.4449 186.521 83.5666 186.847 82.3649C187.139 81.3149 187.816 80.6383 188.866 80.3466C189.414 80.1949 190.417 80.0899 191.957 80.0199C193.474 79.9383 194.862 79.9033 196.146 79.9033L198.001 79.8333C202.889 79.8333 205.934 80.0199 207.136 80.3466C208.186 80.6383 208.862 81.3149 209.154 82.3649Z" fill="white"/>
<path d="M246.001 76.3333C239.561 76.3333 234.334 81.5599 234.334 87.9999C234.334 94.4399 239.561 99.6666 246.001 99.6666C252.441 99.6666 257.667 94.4399 257.667 87.9999C257.667 81.5599 252.441 76.3333 246.001 76.3333ZM251.414 84.2666C251.239 86.1099 250.481 90.5899 250.096 92.6549C249.932 93.5299 249.606 93.8216 249.302 93.8566C248.626 93.9149 248.112 93.4133 247.459 92.9816C246.432 92.3049 245.849 91.8849 244.857 91.2316C243.702 90.4733 244.449 90.0533 245.114 89.3766C245.289 89.2016 248.276 86.4833 248.334 86.2383C248.342 86.2011 248.341 86.1626 248.331 86.126C248.321 86.0894 248.302 86.0559 248.276 86.0283C248.206 85.9699 248.112 85.9933 248.031 86.0049C247.926 86.0283 246.292 87.1133 243.107 89.2599C242.641 89.5749 242.221 89.7383 241.847 89.7266C241.427 89.7149 240.634 89.4933 240.039 89.2949C239.304 89.0616 238.732 88.9333 238.779 88.5249C238.802 88.3149 239.094 88.1049 239.642 87.8833C243.049 86.4016 245.312 85.4216 246.444 84.9549C249.687 83.6016 250.352 83.3683 250.796 83.3683C250.889 83.3683 251.111 83.3916 251.251 83.5083C251.367 83.6016 251.402 83.7299 251.414 83.8233C251.402 83.8933 251.426 84.1033 251.414 84.2666Z" fill="white"/>
<path d="M12 37C7.8 37 4 40.22 4 45.2C4 48.38 6.45 52.12 11.34 56.43C11.72 56.76 12.29 56.76 12.67 56.43C17.55 52.12 20 48.38 20 45.2C20 40.22 16.2 37 12 37ZM12 47C10.9 47 10 46.1 10 45C10 43.9 10.9 43 12 43C13.1 43 14 43.9 14 45C14 46.1 13.1 47 12 47Z" fill="white"/>
<path d="M45.2667 45.0001L51.6667 51.4001L51.6667 45.6667L53 45.6667L53 53.6667L45 53.6667L45 52.3334L50.7333 52.3334L44.3333 45.9334L45.2667 45.0001Z" fill="#333333"/>
<path d="M64.2667 43.0001L70.6667 49.4001L70.6667 43.6667L72 43.6667L72 51.6667L64 51.6667L64 50.3334L69.7333 50.3334L63.3333 43.9334L64.2667 43.0001Z" fill="white"/>
<path d="M83.2667 43.0001L89.6667 49.4001L89.6667 43.6667L91 43.6667L91 51.6667L83 51.6667L83 50.3334L88.7333 50.3334L82.3333 43.9334L83.2667 43.0001Z" fill="#407677"/>
<path d="M44.5005 16H45.2905L45.5705 15.73C44.9456 15.0039 44.4888 14.1487 44.233 13.2256C43.9771 12.3024 43.9285 11.3341 44.0905 10.39C44.5605 7.60998 46.8805 5.38997 49.6805 5.04997C50.6649 4.92544 51.6647 5.02775 52.6035 5.34906C53.5423 5.67038 54.3951 6.20219 55.0967 6.90381C55.7983 7.60542 56.3301 8.45824 56.6514 9.397C56.9727 10.3358 57.075 11.3356 56.9505 12.32C56.6105 15.12 54.3905 17.44 51.6105 17.91C50.6664 18.072 49.6981 18.0234 48.7749 17.7675C47.8517 17.5117 46.9965 17.0549 46.2705 16.43L46.0005 16.71V17.5L41.7505 21.75C41.3405 22.16 40.6705 22.16 40.2605 21.75C39.8505 21.34 39.8505 20.67 40.2605 20.26L44.5005 16ZM50.5005 16.43C52.9905 16.43 55.5005 13.99 55.5005 11.5C55.5005 9.00997 52.9905 6.49997 50.5005 6.49997C48.0105 6.49997 45.5005 9.00997 45.5005 11.5C45.5005 13.99 48.0105 16.43 50.5005 16.43Z" fill="#407677"/>
</svg>
