<svg width="91" height="89" viewBox="0 0 91 89" fill="none" xmlns="http://www.w3.org/2000/svg">
<path d="M45.5006 10.7224C55.0376 10.7224 63.6714 14.5038 69.9209 20.6158C76.1703 26.728 80.0367 35.173 80.0367 44.4994C80.0367 53.827 76.1703 62.271 69.9209 68.3831C63.6714 74.4962 55.0376 78.2766 45.5006 78.2766C35.9635 78.2766 27.3297 74.4962 21.0802 68.3831C14.8308 62.271 10.9645 53.827 10.9645 44.4994C10.9645 35.173 14.8308 26.728 21.0802 20.6158C27.3297 14.5038 35.9635 10.7224 45.5006 10.7224ZM67.498 74.0792L67.4412 74.0068L68.935 72.8865L68.9918 72.9578L68.8964 73.0291C68.8139 73.092 68.7583 73.1568 68.7304 73.2229C68.709 73.2711 68.7068 73.3246 68.725 73.3875C68.7356 73.4315 68.7967 73.5248 68.9071 73.6673L70.3591 75.5171C70.4727 75.6617 70.5521 75.7455 70.5949 75.7706C70.6389 75.7947 70.6946 75.8031 70.7631 75.7948C70.8317 75.7874 70.9056 75.7528 70.986 75.692L71.0814 75.6209L71.1371 75.6931L69.6433 76.8146L69.5876 76.7422L69.6819 76.6709C69.7644 76.6091 69.8191 76.5452 69.8469 76.4781C69.8673 76.4309 69.8705 76.3765 69.8544 76.3136C69.8427 76.2685 69.7826 76.1752 69.6712 76.0337L68.2192 74.1829C68.1056 74.0383 68.0274 73.9544 67.9835 73.9303C67.9385 73.9062 67.8827 73.8978 67.8141 73.9062C67.7455 73.9146 67.6716 73.9481 67.5923 74.0079L67.498 74.0792ZM72.0287 75.0905L71.3504 74.4041L71.4167 74.3402C71.615 74.4606 71.7726 74.5319 71.8905 74.5539C72.0094 74.5759 72.1326 74.5665 72.2601 74.5256C72.3298 74.5015 72.4262 74.4333 72.5484 74.3181L72.7444 74.1326L70.8038 72.1676C70.6742 72.0365 70.5853 71.9611 70.5392 71.9422C70.492 71.9233 70.4352 71.9223 70.3699 71.937C70.3023 71.9527 70.2327 71.9946 70.1598 72.0638L70.0742 72.1445L70.0098 72.0785L71.3643 70.7999L71.4285 70.8648L71.3429 70.9456C71.2679 71.0168 71.2207 71.086 71.2014 71.1562C71.1864 71.2044 71.1896 71.2599 71.2132 71.3207C71.2293 71.3637 71.3 71.4496 71.4276 71.5786L73.3682 73.5436L73.5567 73.3654C73.7303 73.2009 73.8214 73.0448 73.8289 72.898C73.8397 72.6926 73.7668 72.4831 73.6103 72.2682L73.6853 72.198L74.3637 72.8844L72.0287 75.0905ZM76.3032 70.5483L75.1877 69.6072L75.1406 69.6607C74.9905 69.8315 74.9359 70.0002 74.9777 70.1689C75.0184 70.3367 75.1363 70.521 75.3303 70.7212L75.2617 70.7978L73.8279 69.5883L73.8954 69.5118C74.0657 69.6282 74.2233 69.7026 74.3669 69.7361C74.5126 69.7686 74.6305 69.7665 74.7247 69.7278C74.818 69.69 74.9219 69.6062 75.0345 69.4783L74.264 68.8296C74.1139 68.7017 74.0165 68.6314 73.9715 68.6157C73.9276 68.5991 73.8793 68.5991 73.8268 68.6157C73.7754 68.6325 73.7153 68.6786 73.6489 68.7541L73.5074 68.9145C73.2868 69.165 73.1699 69.4154 73.1539 69.6659C73.1388 69.9153 73.2235 70.1763 73.4079 70.4457L73.3436 70.5189L72.5795 69.6649L74.6177 67.3518L74.6884 67.4116L74.6102 67.4996C74.5426 67.5772 74.5008 67.6516 74.488 67.7229C74.4773 67.7732 74.4869 67.8266 74.5169 67.8842C74.5362 67.9251 74.6155 68.0047 74.7537 68.1221L76.5594 69.6439C76.6848 69.7498 76.7641 69.8106 76.7983 69.8284C76.8572 69.8555 76.9151 69.8619 76.9729 69.8473C77.0544 69.8294 77.1337 69.7781 77.2098 69.6911L77.288 69.603L77.3588 69.6617L75.3849 71.9013L74.5748 71.219L74.6423 71.1416C74.8737 71.2714 75.0634 71.3375 75.2102 71.3406C75.356 71.3448 75.5049 71.3008 75.6571 71.2096C75.746 71.1562 75.8789 71.0294 76.0579 70.8271L76.3032 70.5483ZM78.0232 68.862L77.2259 68.3098L77.2795 68.2364C77.4969 68.3171 77.6652 68.359 77.7852 68.359C77.9063 68.3601 78.0253 68.3286 78.1431 68.2647C78.2074 68.229 78.2889 68.1431 78.3875 68.0079L78.545 67.791L76.2636 66.2126C76.1125 66.1067 76.0107 66.0491 75.9614 66.0386C75.9121 66.0292 75.8553 66.0376 75.7942 66.0648C75.731 66.0921 75.671 66.1455 75.612 66.2273L75.5434 66.3216L75.4673 66.2692L76.5551 64.7663L76.6312 64.8187L76.5615 64.9141C76.5026 64.9969 76.4693 65.0745 76.4629 65.1458C76.4575 65.1971 76.4715 65.2495 76.5058 65.305C76.5294 65.3448 76.6162 65.4161 76.765 65.5199L79.0454 67.0982L79.1965 66.8886C79.3369 66.6957 79.3958 66.526 79.3755 66.3803C79.3466 66.177 79.2362 65.9841 79.0422 65.8008L79.1011 65.718L79.8984 66.2703L78.0232 68.862ZM80.5746 63.9846C80.7449 64.0777 80.8724 64.1228 80.955 64.1176C81.0364 64.1123 81.1221 64.0337 81.2122 63.8797L81.2711 63.7781L81.3526 63.8231L80.3924 65.4685L80.3109 65.4234L80.3742 65.3165C80.4567 65.1741 80.4835 65.064 80.4546 64.9864C80.4256 64.9089 80.3152 64.8166 80.1245 64.7107L78.0532 63.5548C77.8592 63.4468 77.722 63.4007 77.6395 63.4175C77.557 63.4343 77.4744 63.5129 77.393 63.6533L77.3309 63.7602L77.2495 63.7152L78.2095 62.0697L78.2899 62.1148L78.231 62.2164C78.1474 62.359 78.1217 62.4691 78.1538 62.5456C78.186 62.6231 78.2964 62.7133 78.4828 62.818L80.1952 63.7739L79.084 61.7155C78.9329 61.6317 78.815 61.5887 78.7283 61.5887C78.6415 61.5887 78.5514 61.6673 78.4582 61.8266L78.396 61.9335L78.3156 61.8885L79.2748 60.243L79.3562 60.2881L79.2962 60.3897C79.2126 60.5334 79.1858 60.6455 79.2169 60.7231C79.249 60.8005 79.3584 60.8917 79.5458 60.9966L81.6172 62.1515C81.808 62.2584 81.9419 62.3087 82.0191 62.3034C82.0962 62.2982 82.183 62.2154 82.2773 62.0529L82.3373 61.9514L82.4177 61.9964L81.4575 63.6418L81.3772 63.5967L81.4393 63.4898C81.5197 63.3526 81.5432 63.2425 81.5079 63.1618C81.4747 63.0801 81.3676 62.9889 81.1865 62.8893L79.4622 61.9262L80.5746 63.9846ZM83.0456 60.8435L81.8733 60.4034L81.9109 60.309C82.2462 60.3531 82.5334 60.309 82.7734 60.177C83.0135 60.0439 83.1817 59.8542 83.2782 59.6079C83.3586 59.4036 83.3725 59.1919 83.3179 58.9749C83.2643 58.758 83.1539 58.5735 82.9888 58.4194C82.7777 58.2234 82.5184 58.0684 82.2108 57.9531C81.9087 57.8399 81.6183 57.7728 81.3408 57.7539C81.0632 57.7361 80.8285 57.7812 80.64 57.8923C80.4503 58.0034 80.3067 58.1857 80.207 58.4383C80.1255 58.6459 80.0987 58.8522 80.1234 59.0598C80.1491 59.2673 80.2381 59.5084 80.3902 59.785L80.0998 59.676C79.9745 59.4172 79.9059 59.1709 79.8952 58.9371C79.8845 58.7035 79.9316 58.454 80.0367 58.1868C80.1748 57.8347 80.3699 57.5495 80.6207 57.3306C80.8724 57.1115 81.1629 56.9784 81.4907 56.9323C81.8198 56.8851 82.1369 56.9186 82.4423 57.0339C82.7648 57.1545 83.0381 57.3515 83.2621 57.624C83.486 57.8965 83.6232 58.2025 83.6736 58.5421C83.7229 58.8805 83.6864 59.2076 83.5632 59.5219C83.4721 59.7536 83.3254 59.9779 83.1217 60.1969C83.0028 60.3237 82.9352 60.4076 82.9202 60.4474C82.8999 60.4998 82.9009 60.5522 82.9256 60.6046C82.9492 60.6581 83.0017 60.7053 83.0821 60.7482L83.0456 60.8435ZM83.0821 54.4788L82.1176 54.2054C81.9291 54.1519 81.8069 54.1288 81.7512 54.1383C81.6954 54.1467 81.644 54.175 81.5968 54.2253C81.5518 54.2734 81.5047 54.3761 81.4596 54.5291L81.3707 54.504L81.883 52.7769L81.9719 52.802C81.9259 52.9593 81.9087 53.0703 81.9226 53.1342C81.9355 53.1992 81.9634 53.2495 82.0052 53.2862C82.0459 53.3229 82.1615 53.3669 82.3512 53.4214L84.6091 54.0628C84.7987 54.1173 84.9209 54.1393 84.9766 54.1299C85.0323 54.1215 85.0838 54.0942 85.1299 54.045C85.176 53.9957 85.222 53.894 85.2681 53.7389L85.3571 53.7641L84.9177 55.245C84.7719 55.7333 84.5791 56.0583 84.339 56.2197C84.0979 56.381 83.8451 56.424 83.5782 56.3485C83.352 56.2846 83.1796 56.161 83.0596 55.9776C82.9395 55.7952 82.8859 55.5762 82.8988 55.3183C82.9063 55.1454 82.9674 54.8656 83.0821 54.4788ZM84.7848 54.963L83.2814 54.5354C83.2611 54.5899 83.2471 54.6319 83.2386 54.6602C83.1785 54.8646 83.1935 55.0395 83.2846 55.1852C83.3756 55.3309 83.5514 55.441 83.8118 55.5143C84.07 55.5877 84.2747 55.5867 84.428 55.5102C84.5802 55.4336 84.6895 55.2848 84.7548 55.0668L84.7848 54.963ZM85.7171 50.7908L84.264 50.5518L84.2522 50.621C84.2136 50.8432 84.2576 51.0152 84.3819 51.1387C84.5062 51.2614 84.7045 51.3599 84.9755 51.4322L84.9595 51.5318L83.0917 51.2247L83.1089 51.1251C83.3157 51.1387 83.4903 51.122 83.6307 51.0769C83.7722 51.0318 83.8729 50.9701 83.9319 50.8894C83.9919 50.8097 84.0369 50.686 84.0647 50.5194L83.0628 50.3548C82.8656 50.3224 82.7455 50.3109 82.6985 50.3203C82.6524 50.3287 82.6106 50.3527 82.5752 50.3936C82.5399 50.4334 82.5131 50.5036 82.4959 50.6022L82.4606 50.8108C82.4048 51.1366 82.437 51.4102 82.5559 51.6324C82.676 51.8535 82.8859 52.0338 83.186 52.1711L83.17 52.2665L82.064 51.9227L82.5817 48.9117L82.6728 48.9264L82.6535 49.0417C82.6363 49.1422 82.6406 49.2271 82.6674 49.2953C82.6844 49.3435 82.7209 49.3844 82.7766 49.4179C82.8163 49.4441 82.9256 49.4714 83.1057 49.5007L85.4577 49.8874C85.6196 49.9146 85.7203 49.9262 85.7589 49.9241C85.8243 49.9167 85.8768 49.8937 85.9175 49.8528C85.9786 49.7952 86.0193 49.7114 86.0386 49.5982L86.0578 49.4829L86.1489 49.4986L85.6485 52.4142L84.5941 52.2403L84.6113 52.1407C84.878 52.1334 85.0741 52.0935 85.2017 52.0233C85.3292 51.952 85.4342 51.8388 85.5145 51.6837C85.5628 51.5937 85.6099 51.4176 85.6549 51.1534L85.7171 50.7908ZM84.6273 47.3616C84.5223 47.6918 84.4065 47.9213 84.2822 48.0481C84.1054 48.2315 83.889 48.3133 83.6318 48.2944C83.3606 48.2745 83.1432 48.1508 82.9824 47.9244C82.7873 47.6468 82.7102 47.2579 82.7488 46.7601L82.8881 44.968L82.9803 44.9753C82.9674 45.1388 82.9749 45.2509 83.0017 45.3106C83.0285 45.3714 83.066 45.4154 83.1142 45.4417C83.1614 45.47 83.2846 45.4899 83.4807 45.5045L85.8264 45.6785C86.0225 45.6932 86.1468 45.6911 86.1993 45.6712C86.2529 45.6513 86.2968 45.6125 86.3322 45.557C86.3665 45.4993 86.3901 45.3903 86.4029 45.2289L86.4951 45.2362L86.3643 46.9267C86.3322 47.3312 86.2732 47.6132 86.1864 47.7766C86.1007 47.9401 85.9808 48.0638 85.8264 48.1508C85.6732 48.2368 85.5135 48.2735 85.3496 48.2609C85.1749 48.2483 85.0259 48.1749 84.8995 48.0408C84.7741 47.9066 84.6831 47.6803 84.6273 47.3616ZM84.773 46.4195C84.7537 46.6678 84.7676 46.8534 84.8148 46.976C84.8619 47.0976 84.9348 47.1939 85.0334 47.2652C85.131 47.3354 85.2606 47.3774 85.4202 47.3889C85.5788 47.4004 85.7128 47.3795 85.8189 47.325C85.9261 47.2705 86.0096 47.1876 86.0728 47.0756C86.135 46.9634 86.1746 46.78 86.1928 46.5253L84.773 46.4195ZM84.5662 46.4038L83.411 46.3189L83.2771 46.3084C83.1817 46.3011 83.1078 46.3189 83.0564 46.3629C83.0038 46.4059 82.9738 46.473 82.9663 46.5651C82.9556 46.7024 82.9781 46.8293 83.0317 46.9498C83.0853 47.0693 83.1689 47.1635 83.2836 47.2338C83.3981 47.304 83.5289 47.3449 83.6746 47.3554C83.8429 47.3679 83.9962 47.3449 84.1343 47.2862C84.2737 47.2275 84.3755 47.1331 84.4398 47.0022C84.5051 46.8712 84.547 46.672 84.5662 46.4038ZM85.8136 42.8436C86.0086 42.8268 86.1382 42.7943 86.2046 42.7461C86.2689 42.6968 86.2947 42.5836 86.2807 42.4076L86.2722 42.2902L86.3643 42.2839L86.5112 44.1725L86.419 44.1798L86.4093 44.0572C86.3965 43.8937 86.3558 43.7869 86.2872 43.7397C86.2186 43.6915 86.075 43.6747 85.8553 43.6915L83.4774 43.8676C83.2557 43.8843 83.1153 43.9209 83.0564 43.9796C82.9974 44.0394 82.9738 44.1494 82.9867 44.3109L82.9963 44.4335L82.9042 44.4408L82.7573 42.5512L82.8495 42.5439L82.8591 42.6612C82.8709 42.8258 82.9138 42.9306 82.9835 42.9767C83.0542 43.0228 83.1967 43.0375 83.4121 43.0218L85.3785 42.8761L83.2793 41.7788C83.1057 41.7924 82.9845 41.8218 82.9117 41.869C82.8388 41.916 82.8098 42.0313 82.8238 42.2148L82.8334 42.3364L82.7414 42.3437L82.5945 40.4541L82.6867 40.4478L82.6964 40.5652C82.7091 40.7297 82.7509 40.8366 82.8216 40.8838C82.8924 40.9309 83.0349 40.9466 83.2503 40.9299L85.6271 40.7538C85.8468 40.7381 85.9872 40.7056 86.0482 40.6595C86.1093 40.6134 86.1328 40.4971 86.1189 40.3105L86.1093 40.1941L86.2014 40.1868L86.3483 42.0764L86.2561 42.0827L86.2464 41.96C86.2336 41.8019 86.1907 41.6981 86.1157 41.6499C86.0407 41.6006 85.9004 41.5849 85.6935 41.5996L83.7132 41.7474L85.8136 42.8436ZM83.8075 37.0469L82.6985 37.2293C82.5152 37.2587 82.4016 37.288 82.3587 37.3142C82.3169 37.3425 82.2826 37.3865 82.2591 37.4493C82.2333 37.5122 82.2301 37.5919 82.2462 37.6883L82.2666 37.8036L82.1744 37.8183L81.8626 36.0021L81.9537 35.9874L81.9741 36.1026C81.9912 36.2032 82.0245 36.2818 82.0715 36.3374C82.1037 36.3772 82.1519 36.4045 82.2162 36.4191C82.2612 36.4307 82.3748 36.4212 82.5549 36.3919L84.9059 36.0052C85.0902 35.9748 85.2028 35.9465 85.2456 35.9214C85.2885 35.8941 85.3217 35.8501 85.3463 35.7872C85.372 35.7243 85.3753 35.6446 85.3582 35.5461L85.3389 35.4309L85.4299 35.4162L85.7417 37.2314L85.6507 37.2471L85.6314 37.1318C85.6142 37.0322 85.581 36.9547 85.5338 36.8991C85.5006 36.8593 85.4534 36.831 85.3881 36.8153C85.3432 36.8037 85.2306 36.8121 85.0506 36.8425L84.038 37.0081L84.2512 38.2458L85.2628 38.0792C85.447 38.0488 85.5595 38.0206 85.6024 37.9944C85.6442 37.9671 85.6785 37.9231 85.7021 37.8592C85.7278 37.7952 85.731 37.7156 85.715 37.6181L85.6946 37.5049L85.7868 37.4892L86.0985 39.3055L86.0075 39.3202L85.9872 39.2069C85.97 39.1053 85.9368 39.0267 85.8907 38.9732C85.8575 38.9323 85.8093 38.9051 85.745 38.8893C85.7 38.8778 85.5863 38.8862 85.4063 38.9155L83.0553 39.3023C82.8709 39.3326 82.7573 39.3609 82.7156 39.3871C82.6728 39.4133 82.6385 39.4584 82.6149 39.5224C82.5902 39.5863 82.586 39.666 82.6031 39.7634L82.6224 39.8766L82.5313 39.8924L82.2183 38.076L82.3105 38.0614L82.3298 38.1746C82.347 38.2762 82.3802 38.3549 82.4273 38.4083C82.4595 38.4482 82.5077 38.4765 82.5731 38.4922C82.6181 38.5037 82.7305 38.4953 82.9106 38.466L84.0196 38.2836L83.8075 37.0469ZM84.8159 33.3788L85.1524 34.5117L85.0634 34.5369C85.0184 34.4226 84.9466 34.3398 84.8469 34.2874C84.7473 34.2361 84.5598 34.1837 84.2833 34.1345L81.8498 33.6817C81.4693 33.6104 81.2218 33.5256 81.1071 33.4281C80.9925 33.3296 80.9099 33.1975 80.8606 33.0308C80.8071 32.8495 80.8167 32.6976 80.8896 32.5771C80.9635 32.4555 81.0621 32.3779 81.1875 32.3423C81.2883 32.314 81.3815 32.3234 81.4661 32.3706C81.5518 32.4177 81.6086 32.489 81.6365 32.5834C81.6633 32.6735 81.6601 32.7469 81.6236 32.8024C81.5883 32.8568 81.5111 32.9103 81.3912 32.9627C81.2508 33.0235 81.195 33.1032 81.224 33.2017C81.2583 33.318 81.4061 33.3967 81.6665 33.4375L81.779 33.4585L83.6779 31.6023C83.8397 31.4442 83.9372 31.3194 83.9705 31.2272C84.0058 31.135 84.0069 31.0155 83.9737 30.8667L84.0625 30.8416L84.5652 32.533L84.4762 32.5582L84.4569 32.4932C84.398 32.2962 84.3197 32.2112 84.2233 32.2395C84.1868 32.25 84.1375 32.2825 84.0775 32.3402L82.7488 33.6397L84.2329 33.9165C84.4387 33.9542 84.5812 33.9605 84.6584 33.9385C84.7174 33.9217 84.758 33.8829 84.7805 33.82C84.803 33.7571 84.7859 33.6188 84.727 33.404L84.8159 33.3788ZM78.4968 29.6824L78.4539 29.6028C79.009 29.1626 79.144 28.6794 78.8568 28.1533L79.7323 26.8758C79.8255 26.7406 79.877 26.6557 79.8888 26.62C79.907 26.5509 79.8888 26.4597 79.832 26.3454L78.7485 26.9093C78.5932 26.9899 78.5107 27.0801 78.5021 27.1797C78.4957 27.2541 78.5375 27.3725 78.6265 27.5361L78.5439 27.578L77.6588 25.9535L77.7413 25.9105C77.8388 26.0824 77.9267 26.1841 78.0039 26.2145C78.0928 26.2501 78.2224 26.2218 78.3939 26.1327L80.5317 25.0186C80.7128 24.9254 80.8221 24.8447 80.8628 24.7766C80.9132 24.6864 80.8939 24.5606 80.806 24.3993L80.7695 24.3322L80.8521 24.2903L81.7372 25.9147L81.6547 25.9577L81.6258 25.9042C81.5432 25.7522 81.4575 25.6653 81.3707 25.6444C81.2829 25.6224 81.1586 25.6538 80.9978 25.7376L80.0441 26.2344C80.1459 26.4209 80.207 26.5288 80.2273 26.555C80.3077 26.6662 80.4063 26.7322 80.5231 26.7532C80.6239 26.771 80.7899 26.7532 81.0246 26.6986C81.2572 26.6441 81.4318 26.6106 81.5465 26.6001C81.7522 26.5833 81.9248 26.6096 82.063 26.6787C82.1851 26.7406 82.2869 26.8454 82.3684 26.9942C82.4423 27.1294 82.4659 27.2635 82.438 27.3956C82.4091 27.535 82.3255 27.6398 82.1873 27.7121C82.0929 27.7603 82.0009 27.7718 81.9119 27.7435C81.8219 27.7162 81.7522 27.6565 81.7019 27.5644C81.6076 27.3904 81.6601 27.2426 81.8594 27.121C81.9602 27.0602 81.9934 26.9973 81.958 26.9334C81.8905 26.8098 81.6461 26.793 81.225 26.8842C81.0032 26.9334 80.8564 26.9607 80.7845 26.968C80.6078 26.99 80.461 26.9806 80.3452 26.9408C80.3924 27.1231 80.3742 27.2897 80.2906 27.4438C80.2766 27.47 80.1609 27.6492 79.9424 27.9793L79.533 28.5998C79.4751 28.6899 79.4429 28.7811 79.4386 28.8744C79.4333 28.9665 79.4568 29.0609 79.5083 29.1563L78.4968 29.6824ZM76.854 21.2981L77.1273 21.6807C77.423 22.0936 77.5623 22.4436 77.5473 22.7318C77.5323 23.0201 77.4005 23.2495 77.1519 23.4193C76.9837 23.5347 76.8047 23.5871 76.614 23.5766C76.4232 23.565 76.2475 23.5084 76.0847 23.4068C75.9228 23.3051 75.7439 23.1165 75.5477 22.8419L74.4376 21.2908L74.5137 21.2384C74.6455 21.4155 74.7515 21.514 74.834 21.5319C74.9176 21.5497 75.0366 21.5056 75.1942 21.3987L77.1616 20.052C77.3737 19.9073 77.4894 19.7963 77.5055 19.7219C77.5227 19.6485 77.4691 19.5196 77.3416 19.3362L77.4176 19.2838L78.485 20.7752L78.4089 20.8276C78.3092 20.6913 78.2299 20.6095 78.1742 20.5823C78.1163 20.554 78.0618 20.5435 78.0125 20.5498C77.961 20.555 77.8635 20.6074 77.7166 20.7081L76.854 21.2981ZM76.6622 21.4302L75.7674 22.0412C75.627 22.1376 75.5402 22.2257 75.5102 22.3032C75.4813 22.3808 75.5027 22.4719 75.5767 22.5757C75.6956 22.7423 75.8425 22.8283 76.0193 22.8335C76.1939 22.8398 76.3686 22.7832 76.5401 22.6658C76.7062 22.5515 76.8186 22.4185 76.8765 22.2644C76.9344 22.1104 76.944 21.9762 76.9054 21.8619C76.8669 21.7478 76.7854 21.6031 76.6622 21.4302ZM77.4701 25.3708L77.394 25.4232L76.315 23.914L76.3911 23.8626L76.4575 23.9559C76.5229 24.0471 76.5872 24.1048 76.6505 24.1289C76.7126 24.153 76.7716 24.1572 76.824 24.1415C76.8776 24.1257 76.973 24.0691 77.1112 23.9748L79.0647 22.6385C79.204 22.5432 79.2898 22.475 79.3219 22.4373C79.3541 22.3975 79.3691 22.3431 79.368 22.2707C79.3648 22.1995 79.3326 22.1198 79.2705 22.0317L79.2029 21.9384L79.2791 21.886L80.3581 23.3942L80.282 23.4466L80.2145 23.3523C80.1502 23.2621 80.086 23.2045 80.0227 23.1804C79.9595 23.1562 79.9016 23.151 79.8491 23.1678C79.7955 23.1835 79.7001 23.2391 79.5619 23.3334L77.6084 24.6707C77.4691 24.7661 77.3823 24.8332 77.3502 24.8719C77.3181 24.9107 77.3031 24.9663 77.3052 25.0386C77.3073 25.1098 77.3406 25.1894 77.4026 25.2764L77.4701 25.3708ZM76.5026 18.4832C76.3686 18.3437 76.2582 18.2756 76.1735 18.2777C76.0889 18.2798 75.9839 18.3385 75.8585 18.4538L74.0294 20.1432C73.889 20.2732 73.8161 20.378 73.8139 20.4566C73.8107 20.5351 73.8772 20.6483 74.0144 20.7951L73.9468 20.858L72.6995 19.5657L72.7671 19.5028C72.8666 19.6056 72.9459 19.6716 73.0038 19.6968C73.0628 19.723 73.1206 19.7261 73.1796 19.7072C73.2374 19.6894 73.3189 19.6318 73.4229 19.5364L75.4856 17.6321L74.8898 17.0148L74.1044 17.7401C73.7754 18.044 73.5171 18.2672 73.3296 18.4098C73.1431 18.5533 72.9374 18.6602 72.7135 18.7315C72.4895 18.8028 72.2848 18.8185 72.0983 18.7776C71.913 18.7367 71.7544 18.6487 71.6215 18.5115C71.5025 18.3878 71.4425 18.2609 71.4425 18.1299C71.4446 18.001 71.4939 17.89 71.5914 17.7998C71.674 17.7244 71.7608 17.6835 71.853 17.6772C71.9462 17.6709 72.0309 17.7065 72.107 17.7852C72.2473 17.9308 72.2322 18.0974 72.063 18.2819C71.9859 18.3658 71.9762 18.4349 72.0309 18.4915C72.108 18.5711 72.243 18.6046 72.4391 18.5942C72.6352 18.5826 72.843 18.5031 73.0628 18.3563C73.2825 18.2075 73.5728 17.9664 73.9372 17.63L74.4333 17.1721C74.5759 17.04 74.6627 16.9446 74.6927 16.8838C74.7248 16.823 74.7279 16.757 74.7023 16.6888C74.6766 16.6207 74.6048 16.5233 74.4869 16.3955L74.5544 16.3336L76.5701 18.4213L76.5026 18.4832ZM70.4095 16.0024L69.4611 15.1839L69.1097 15.34C68.9939 15.3945 68.9114 15.4511 68.86 15.5077C68.7914 15.5832 68.7722 15.665 68.801 15.753C68.8182 15.8054 68.8921 15.8977 69.0239 16.0296L68.9629 16.0978L68.0617 15.3201L68.1238 15.2521C68.2331 15.3211 68.3499 15.3505 68.4699 15.34C68.5921 15.3285 68.7915 15.2615 69.0668 15.1357L71.943 13.8592L71.9805 13.8917L70.9967 16.9069C70.9024 17.1951 70.8606 17.3931 70.8713 17.499C70.8799 17.5797 70.9228 17.6573 70.9999 17.7359L70.9378 17.804L69.6283 16.6721L69.6894 16.605L69.743 16.6511C69.848 16.7413 69.9359 16.7916 70.0045 16.7989C70.0527 16.8031 70.0944 16.7853 70.1298 16.7454C70.1512 16.7213 70.1705 16.6941 70.1844 16.6616C70.193 16.648 70.2177 16.5809 70.2595 16.4604L70.4095 16.0024ZM70.476 15.8033L70.8874 14.5509L69.6572 15.0969L70.476 15.8033ZM66.3996 10.0779L67.9835 11.0735L67.9331 11.149L67.8817 11.1165C67.7327 11.0232 67.6148 10.9865 67.528 11.0096C67.4424 11.0326 67.3502 11.1196 67.2505 11.2716L66.6665 12.1613C66.8765 12.2924 67.0169 12.371 67.0887 12.3972C67.1605 12.4223 67.2451 12.4192 67.3427 12.3857C67.4402 12.3532 67.5762 12.2578 67.7509 12.0985C67.9545 11.9141 68.1206 11.783 68.2481 11.7065C68.3756 11.629 68.5096 11.5881 68.6479 11.5828C68.7871 11.5786 68.9275 11.6216 69.0722 11.7128C69.2158 11.8019 69.3047 11.9141 69.339 12.0492C69.3733 12.1834 69.3519 12.3081 69.2747 12.4255C69.2147 12.5167 69.1386 12.5701 69.0465 12.5859C68.9532 12.6026 68.8643 12.5838 68.7774 12.5293C68.6071 12.4223 68.5803 12.2683 68.694 12.066C68.7508 11.9654 68.7485 11.8952 68.6854 11.8564C68.6179 11.8134 68.5364 11.8155 68.4389 11.8585C68.3424 11.9036 68.2031 12.0053 68.021 12.1634C67.8442 12.3186 67.7048 12.4307 67.603 12.4999C67.5033 12.5701 67.3963 12.6142 67.2827 12.633C67.363 12.7168 67.4166 12.7933 67.4422 12.8635C67.469 12.9338 67.483 13.0124 67.484 13.0994C67.4862 13.1864 67.4755 13.397 67.4499 13.7324L67.4027 14.4692C67.3973 14.5792 67.4156 14.6756 67.4562 14.7563C67.4969 14.837 67.5644 14.9062 67.6587 14.9659L67.6084 15.0424L66.5883 14.401L66.7104 12.8688C66.7255 12.6938 66.7244 12.5817 66.7083 12.5345C66.6933 12.4852 66.6365 12.4276 66.5368 12.3584L65.8735 13.3687C65.7781 13.5133 65.7481 13.6255 65.7824 13.703C65.8167 13.7806 65.9164 13.8718 66.0793 13.9745L66.0289 14.0499L64.4451 13.0554L64.4954 12.9788C64.6723 13.0868 64.804 13.1329 64.8908 13.1193C64.9766 13.1046 65.0719 13.0197 65.1759 12.8614L66.4843 10.867C66.6001 10.6921 66.6558 10.56 66.6515 10.473C66.6483 10.3839 66.569 10.2927 66.4146 10.1953L66.3493 10.1544L66.3996 10.0779ZM64.129 9.54758C64.2179 9.3778 64.2586 9.25204 64.2511 9.17134C64.2425 9.09169 64.1589 9.01098 63.9983 8.92924L63.8922 8.87475L63.935 8.79405L65.6506 9.67231L65.6077 9.753L65.4973 9.6964C65.3485 9.61989 65.2338 9.59788 65.1566 9.62933C65.0784 9.66076 64.9883 9.77081 64.8865 9.96156L63.7807 12.0283C63.6778 12.2211 63.6349 12.3574 63.6553 12.437C63.6757 12.5177 63.7582 12.5953 63.905 12.6697L64.0165 12.7273L63.9736 12.8069L62.2569 11.9287L62.3008 11.848L62.4069 11.9025C62.5559 11.9791 62.6684 12 62.7467 11.9665C62.8237 11.9319 62.9127 11.8218 63.0123 11.6342L63.9264 9.92592L61.8636 11.0871C61.7833 11.2381 61.7447 11.3544 61.7468 11.4392C61.75 11.5252 61.8347 11.6101 62.0008 11.695L62.1122 11.7516L62.0683 11.8323L60.3527 10.954L60.3955 10.8733L60.5016 10.9278C60.6517 11.0043 60.7664 11.0264 60.8445 10.9928C60.9238 10.9593 61.0128 10.8492 61.1124 10.6617L62.2183 8.59597C62.3201 8.40523 62.3662 8.27213 62.3587 8.19667C62.3501 8.12121 62.2622 8.04051 62.093 7.95353L61.9869 7.89902L62.0298 7.81938L63.7464 8.69763L63.7035 8.77833L63.5921 8.72068C63.4486 8.64732 63.3349 8.62846 63.2535 8.66514C63.172 8.70183 63.0831 8.80977 62.9866 8.98898L62.0662 10.7099L64.129 9.54758ZM57.9181 6.37309L60.9356 7.375L60.6206 8.28471L60.5327 8.25536C60.5692 8.01746 60.5735 7.84244 60.5413 7.7282C60.5102 7.61606 60.4534 7.53012 60.3709 7.47352C60.2894 7.41693 60.1138 7.34357 59.8437 7.25449L59.145 7.02287L58.2416 9.62514C58.1752 9.81588 58.1623 9.94688 58.1998 10.0192C58.2374 10.0905 58.3306 10.1502 58.4806 10.2005L58.5685 10.2288L58.5385 10.3147L56.7554 9.72366L56.7854 9.63771L56.8818 9.66915C57.0308 9.7184 57.1412 9.7247 57.214 9.68592C57.288 9.64715 57.3566 9.53711 57.4209 9.35266L58.2213 7.04279C58.2749 6.88872 58.2909 6.77239 58.2684 6.69274C58.2459 6.6131 58.1559 6.54707 57.9974 6.49466L57.8881 6.45903L57.9181 6.37309ZM55.0065 5.53257C55.5723 5.63738 55.9914 5.89833 56.2635 6.3165C56.5357 6.73571 56.6129 7.19894 56.4939 7.71142C56.3921 8.14741 56.1724 8.5027 55.8328 8.77623C55.3838 9.13885 54.8436 9.25099 54.2103 9.11055C53.5749 8.96908 53.1334 8.65047 52.8848 8.1537C52.6877 7.76069 52.6416 7.33728 52.7477 6.88138C52.8666 6.36994 53.1431 5.98322 53.5792 5.72226C54.0154 5.4592 54.4901 5.39737 55.0065 5.53257ZM54.999 5.70131C54.6755 5.62899 54.3925 5.73484 54.1492 6.01886C53.95 6.25257 53.7935 6.61623 53.6788 7.10986C53.5427 7.69781 53.5481 8.1558 53.6949 8.48383C53.7978 8.7123 53.9811 8.85693 54.2468 8.91562C54.4258 8.95544 54.5865 8.94601 54.7258 8.88941C54.9026 8.81395 55.0633 8.66724 55.2037 8.44819C55.3441 8.23021 55.4587 7.92942 55.5466 7.54689C55.6527 7.09204 55.6881 6.74096 55.6538 6.49677C55.6195 6.25047 55.5455 6.06707 55.4331 5.94445C55.3195 5.82183 55.1748 5.74008 54.999 5.70131ZM49.086 4.59772L52.2429 5.02113L52.1101 5.97275L52.0179 5.96016C52.0083 5.72016 51.9783 5.54724 51.9247 5.44139C51.8722 5.33659 51.8004 5.26322 51.7082 5.22235C51.6171 5.18252 51.4307 5.14375 51.1478 5.10497L50.417 5.0075L50.0355 7.73029C50.0077 7.93047 50.0194 8.06147 50.0698 8.12435C50.1213 8.18828 50.224 8.22916 50.3805 8.25116L50.4727 8.26269L50.4598 8.35283L48.5953 8.10234L48.6071 8.01326L48.7089 8.02584C48.8631 8.0468 48.9735 8.03213 49.0378 7.98077C49.1032 7.92942 49.1482 7.80785 49.1761 7.61501L49.5146 5.19929C49.5371 5.0379 49.5296 4.91946 49.4921 4.84715C49.4547 4.77275 49.3529 4.72453 49.1868 4.70253L49.0732 4.6868L49.086 4.59772ZM46.4521 7.06059L45.1866 7.04174L45.0247 7.38445C44.9722 7.49868 44.9465 7.59509 44.9454 7.67055C44.9433 7.77116 44.9829 7.84557 45.0633 7.89484C45.1115 7.92313 45.2294 7.94619 45.417 7.96296L45.4159 8.05413L44.2146 8.03528L44.2157 7.94514C44.3453 7.92732 44.4536 7.87492 44.5372 7.79003C44.6229 7.70514 44.729 7.52698 44.8555 7.25659L46.1906 4.45729L46.242 4.45834L47.4991 7.37396C47.619 7.65379 47.7187 7.83091 47.7969 7.90322C47.858 7.95982 47.9416 7.9923 48.052 8.00278L48.0509 8.09292L46.3031 8.06671L46.3042 7.97659L46.376 7.97762C46.5164 7.97972 46.6161 7.96191 46.6729 7.92313C46.7125 7.89589 46.7318 7.85501 46.7329 7.80261C46.734 7.77117 46.7297 7.73868 46.719 7.7041C46.7157 7.68942 46.69 7.62235 46.6418 7.50497L46.4521 7.06059ZM46.3696 6.86672L45.8488 5.65414L45.2787 6.851L46.3696 6.86672ZM40.4276 4.72453L43.4046 4.50445L43.411 4.59458C43.1934 4.61763 43.0573 4.66165 43.0016 4.72348C42.9469 4.78636 42.9266 4.91319 42.9416 5.10497L43.1248 7.46828C43.1366 7.61711 43.157 7.72086 43.1838 7.77746C43.2106 7.83405 43.2642 7.87807 43.3456 7.90951C43.426 7.94095 43.5341 7.95143 43.6702 7.942L43.7571 9.0592L43.6649 9.06654C43.6199 8.76365 43.4871 8.5247 43.2674 8.34968C43.0466 8.17467 42.7573 8.10025 42.3994 8.1275L41.4178 8.19981C41.047 8.22707 40.7567 8.33815 40.5466 8.53204C40.3355 8.72592 40.2251 8.98898 40.2154 9.32226L40.1223 9.32855L40.0366 8.21134C40.4641 8.09082 40.7535 7.77536 40.9045 7.26706C41.0545 6.75876 41.0974 6.09013 41.0331 5.26217C41.0181 5.06095 40.972 4.93309 40.898 4.8765C40.822 4.82095 40.6677 4.79999 40.4351 4.81571L40.4276 4.72453ZM42.1433 4.82829L41.2399 4.89537L41.2635 5.19615C41.2967 5.62061 41.2989 6.03457 41.2721 6.44226C41.2442 6.8489 41.1896 7.17065 41.107 7.40751C41.0224 7.64541 40.9034 7.84872 40.747 8.01955L42.0286 7.92419C42.2023 7.91161 42.3029 7.89274 42.3318 7.86654C42.3618 7.84138 42.3704 7.76383 42.3608 7.63597L42.1433 4.82829ZM36.8175 5.57869L37.1486 6.98305L37.2183 6.96733C37.4433 6.91702 37.589 6.81117 37.6576 6.65187C37.7251 6.49256 37.7422 6.27563 37.7069 6.00314L37.8076 5.98008L38.2341 7.7848L38.1324 7.8068C38.0659 7.61501 37.9834 7.4641 37.888 7.35405C37.7905 7.24401 37.694 7.17693 37.5954 7.15387C37.4958 7.13081 37.363 7.13815 37.1936 7.17589L37.423 8.14427C37.468 8.33396 37.5023 8.44819 37.5291 8.48698C37.5559 8.52575 37.5943 8.553 37.6469 8.56976C37.6983 8.58654 37.7733 8.58339 37.8741 8.56138L38.0852 8.51317C38.4131 8.43982 38.6596 8.30566 38.8235 8.11177C38.9874 7.91894 39.0764 7.66112 39.0903 7.33623L39.1868 7.31423L39.2864 8.44505L36.2441 9.13152L36.2238 9.04348L36.3395 9.01728C36.4413 8.99422 36.5196 8.95755 36.5732 8.90723C36.6128 8.8737 36.6375 8.82445 36.6482 8.76156C36.6568 8.71649 36.6418 8.60645 36.6 8.43247L36.0642 6.16034C36.0267 6.00314 35.9999 5.90776 35.9827 5.87318C35.9517 5.81764 35.9088 5.77885 35.8541 5.75789C35.777 5.72436 35.6816 5.72016 35.568 5.74637L35.4523 5.77256L35.4309 5.68454L38.3766 5.01903L38.6167 6.03876L38.5159 6.06078C38.4077 5.82288 38.2941 5.66043 38.1785 5.5724C38.0627 5.48436 37.9159 5.43301 37.738 5.41938C37.634 5.411 37.4498 5.43614 37.184 5.49588L36.8175 5.57869ZM33.831 9.82217L33.8031 9.73622L33.9124 9.70164C34.0807 9.64924 34.1739 9.58217 34.1922 9.50042C34.2093 9.41657 34.1879 9.28244 34.1279 9.09693L33.2898 6.51877L32.0736 6.89711L32.9104 9.47527C32.9812 9.69326 33.053 9.82112 33.1237 9.85779C33.1945 9.89553 33.3038 9.89134 33.4506 9.84523L33.5534 9.81378L33.5813 9.89972L31.7875 10.4573L31.7585 10.3713L31.8678 10.3367C32.02 10.2896 32.1101 10.2309 32.1411 10.1586C32.1722 10.0863 32.1529 9.94479 32.0843 9.73204L31.3621 7.51021C31.2967 7.30794 31.2313 7.18322 31.1649 7.13501C31.0984 7.08785 30.987 7.0889 30.8295 7.13816L30.7202 7.17169L30.6913 7.08575L34.5297 5.8931L34.5575 5.97903L34.4664 6.00733C34.3057 6.05763 34.2104 6.12156 34.1804 6.20122C34.1504 6.27982 34.1686 6.4192 34.2329 6.61728L34.955 8.84016C35.0258 9.05815 35.0976 9.18496 35.1726 9.2206C35.2476 9.25728 35.3623 9.25099 35.5166 9.20382L35.5969 9.17868L35.6248 9.26462L33.831 9.82217ZM26.7103 11.1626L27.2032 12.0189C27.2997 12.1865 27.3704 12.2871 27.4165 12.3186C27.4626 12.35 27.5205 12.3647 27.589 12.3616C27.6565 12.3584 27.7626 12.3165 27.9051 12.2379L27.9512 12.3175L26.3481 13.199L26.3031 13.1203C26.4488 13.0396 26.5399 12.9725 26.5764 12.917C26.6128 12.8614 26.6299 12.8069 26.6257 12.7524C26.6224 12.698 26.5721 12.5869 26.4756 12.4192L25.3226 10.4143C25.2251 10.2466 25.1544 10.1471 25.1083 10.1146C25.0622 10.0831 25.0065 10.0685 24.9379 10.0705C24.8694 10.0747 24.7643 10.1156 24.6197 10.1953L24.5746 10.1156L25.9484 9.35998C26.4017 9.11055 26.7714 9.01098 27.0585 9.06025C27.3468 9.1095 27.5591 9.25204 27.6951 9.48889C27.8097 9.68906 27.8451 9.89553 27.8001 10.1083C27.7551 10.321 27.635 10.5139 27.4422 10.6889C27.3126 10.8083 27.0682 10.9656 26.7103 11.1626ZM25.8412 9.65134L26.6085 10.9865C26.6621 10.9614 26.7018 10.9414 26.7285 10.9268C26.9171 10.822 27.0328 10.6868 27.0714 10.5202C27.11 10.3546 27.0639 10.1554 26.931 9.92487C26.7993 9.69535 26.6514 9.55597 26.4874 9.50566C26.3245 9.45536 26.1403 9.48679 25.9366 9.59894L25.8412 9.65134ZM23.8878 13.5165L22.8516 14.226L22.9243 14.5971C22.9511 14.7196 22.9876 14.8118 23.0315 14.8737C23.0905 14.9565 23.1676 14.9942 23.262 14.9879C23.3177 14.9837 23.427 14.9345 23.5899 14.8412L23.6434 14.9156L22.6587 15.5884L22.6051 15.514C22.6994 15.426 22.7562 15.3222 22.7733 15.2049C22.7916 15.0865 22.7712 14.881 22.7112 14.5897L22.1165 11.5566L22.1583 11.5283L24.924 13.1707C25.1886 13.3289 25.3751 13.4148 25.4834 13.4295C25.5659 13.4399 25.6526 13.4179 25.7491 13.3634L25.8027 13.4378L24.3699 14.4178L24.3174 14.3434L24.3753 14.3025C24.49 14.2239 24.5607 14.1526 24.5832 14.0897C24.5993 14.0446 24.5907 14.0007 24.5607 13.9578C24.5414 13.9315 24.5189 13.9074 24.49 13.8854C24.4782 13.8749 24.4171 13.8351 24.3078 13.768L23.8878 13.5165ZM23.7045 13.4074L22.5568 12.722L22.8108 14.0195L23.7045 13.4074ZM17.6747 15.1766L19.939 13.2744L20.0001 13.3435C19.8382 13.4882 19.7546 13.6014 19.7471 13.6842C19.7418 13.7659 19.8029 13.8802 19.9304 14.0258L21.51 15.8243C21.6095 15.9375 21.6878 16.0087 21.7435 16.0391C21.8003 16.0684 21.87 16.0737 21.9546 16.0516C22.0382 16.0307 22.1325 15.9762 22.2354 15.8893L22.9822 16.7392L22.9127 16.7989C22.693 16.581 22.4411 16.4657 22.1583 16.4521C21.8742 16.4384 21.5967 16.5464 21.3235 16.7758L20.5776 17.4026C20.2947 17.6395 20.1287 17.8973 20.0762 18.175C20.0236 18.4538 20.0944 18.7294 20.2883 19.003L20.2176 19.0627L19.4707 18.2127C19.7428 17.8669 19.7857 17.4455 19.5983 16.9488C19.4118 16.4521 19.0409 15.8882 18.488 15.2584C18.3541 15.1064 18.2395 15.0288 18.1452 15.0267C18.0509 15.0257 17.9137 15.098 17.7358 15.2458L17.6747 15.1766ZM19.1192 14.2658L18.4323 14.8433L18.6338 15.0728C18.9167 15.3945 19.1706 15.7268 19.3946 16.0716C19.6196 16.4143 19.7696 16.7056 19.8468 16.9446C19.9229 17.1846 19.9508 17.4183 19.9283 17.6457L20.9024 16.8272C21.0341 16.7161 21.1048 16.6417 21.1123 16.6039C21.1198 16.5663 21.0812 16.4992 20.9955 16.4017L19.1192 14.2658ZM15.853 18.4234L15.0439 17.6751L15.1115 17.6059C15.2176 17.6772 15.2969 17.6856 15.3505 17.63C15.3751 17.6049 15.4051 17.5483 15.4405 17.4613C15.5369 17.2318 15.6579 17.04 15.8058 16.887C16.0599 16.6239 16.3234 16.4825 16.5946 16.4615C16.8668 16.4416 17.0896 16.5118 17.2632 16.6721C17.3436 16.7465 17.409 16.8408 17.4583 16.954C17.5065 17.0672 17.5237 17.1972 17.5097 17.346C17.4958 17.4927 17.4229 17.6845 17.2922 17.9182C17.6029 17.6887 17.8772 17.5808 18.1184 17.5933C18.3583 17.6059 18.5555 17.6835 18.7088 17.826C18.8417 17.9486 18.9307 18.1016 18.9734 18.2861C19.0163 18.4706 18.9991 18.6633 18.9199 18.8656C18.8438 19.0669 18.6981 19.2785 18.4837 19.4997C18.278 19.7125 18.0852 19.8539 17.9051 19.9231C17.7261 19.9923 17.5204 20.0143 17.29 19.987L17.2879 19.834C17.6511 19.8382 17.9255 19.7429 18.1119 19.5511C18.2652 19.3917 18.3337 19.2177 18.3165 19.0292C18.2994 18.8405 18.2063 18.6675 18.0369 18.5115C17.9083 18.392 17.7668 18.3175 17.6169 18.2861C17.4669 18.2567 17.3361 18.2683 17.2268 18.3228C17.1175 18.3762 16.9835 18.4811 16.8239 18.6382L16.6535 18.48C16.6974 18.4381 16.7339 18.4014 16.7617 18.372C16.9331 18.1949 17.0039 18.023 16.9738 17.8564C16.9461 17.6898 16.8357 17.5179 16.6428 17.3397C16.4584 17.17 16.2903 17.0861 16.137 17.0893C15.9838 17.0914 15.8573 17.1448 15.7565 17.2485C15.6194 17.39 15.5659 17.5567 15.5937 17.7506C15.6216 17.9423 15.7351 18.1404 15.9312 18.3416L15.853 18.4234ZM13.2919 22.4049L13.5867 22.037C13.9038 21.6409 14.206 21.4082 14.4921 21.3379C14.7782 21.2677 15.0407 21.3243 15.2786 21.5067C15.4416 21.6314 15.5444 21.7834 15.5905 21.9647C15.6344 22.146 15.6311 22.3273 15.5787 22.5086C15.5262 22.6899 15.3944 22.9121 15.1833 23.1762L13.9895 24.6675L13.9167 24.6109C14.0517 24.4369 14.116 24.3092 14.1096 24.2264C14.1031 24.1436 14.0249 24.044 13.8738 23.9276L11.9835 22.4803C11.7799 22.3242 11.6384 22.2487 11.5603 22.255C11.4842 22.2602 11.3738 22.3483 11.2313 22.5211L11.1584 22.4645L12.3049 21.032L12.3778 21.0875C12.274 21.2205 12.2172 21.318 12.2065 21.3788C12.1957 21.4407 12.2011 21.4952 12.2215 21.5402C12.2418 21.5853 12.3221 21.6618 12.4625 21.7698L13.2919 22.4049ZM13.4773 22.5463L14.3356 23.2045C14.4717 23.3072 14.5821 23.3627 14.6668 23.368C14.7515 23.3732 14.834 23.3271 14.9144 23.2265C15.0418 23.0672 15.0836 22.9048 15.0375 22.7381C14.9925 22.5725 14.8865 22.4259 14.7214 22.299C14.5617 22.1774 14.3978 22.1114 14.2307 22.102C14.0635 22.0925 13.9284 22.1229 13.8277 22.1932C13.728 22.2613 13.6102 22.3797 13.4773 22.5463ZM17.095 20.6399L17.1689 20.6965L16.0084 22.146L15.9345 22.0904L16.0073 21.9992C16.077 21.9133 16.1145 21.8357 16.1199 21.7698C16.1252 21.7038 16.1124 21.6482 16.0813 21.6031C16.0502 21.5581 15.9677 21.4847 15.8348 21.383L13.9574 19.9461C13.8234 19.8434 13.7323 19.7827 13.6852 19.7638C13.638 19.745 13.5802 19.7471 13.5095 19.7701C13.4409 19.7922 13.3723 19.8466 13.3048 19.9304L13.233 20.0206L13.159 19.965L14.3195 18.5156L14.3935 18.5711L14.3206 18.6612C14.251 18.7482 14.2135 18.8258 14.2082 18.8918C14.2028 18.9579 14.2157 19.0134 14.2468 19.0575C14.2778 19.1025 14.3603 19.1758 14.4921 19.2775L16.3706 20.7154C16.5035 20.8181 16.5956 20.8789 16.6417 20.8978C16.6899 20.9167 16.7478 20.9146 16.8185 20.8915C16.8871 20.8684 16.9556 20.815 17.0231 20.7311L17.095 20.6399ZM14.7247 25.7512L14.6786 25.8298C14.0013 25.6056 13.5116 25.7522 13.2094 26.27L11.6374 26.2281C11.4713 26.2229 11.3706 26.226 11.3342 26.2354C11.2634 26.2564 11.1948 26.3204 11.1262 26.4282L12.1925 27.0235C12.3446 27.1084 12.4668 27.1283 12.5579 27.0832C12.6243 27.0486 12.7058 26.9513 12.799 26.7909L12.8794 26.836L11.9471 28.4352L11.8656 28.3901C11.9621 28.2173 12.0028 28.0905 11.9889 28.0097C11.9717 27.9185 11.8785 27.8253 11.7102 27.7309L9.60569 26.5571C9.4278 26.4576 9.30028 26.4104 9.21991 26.4135C9.1149 26.4198 9.01631 26.5016 8.92309 26.6609L8.88557 26.7269L8.80414 26.6819L9.73748 25.0825L9.81785 25.1276L9.78678 25.18C9.69998 25.3289 9.67105 25.4463 9.69891 25.5301C9.72677 25.614 9.82 25.6999 9.97859 25.7889L10.9173 26.312C11.0244 26.1285 11.0844 26.0206 11.0962 25.9891C11.1498 25.8633 11.1541 25.747 11.1102 25.6391C11.0716 25.5458 10.9676 25.418 10.7952 25.2534C10.6237 25.0899 10.5026 24.9631 10.4319 24.874C10.3065 24.7126 10.2379 24.5564 10.224 24.4044C10.2122 24.2714 10.2486 24.131 10.3333 23.9842C10.4115 23.8511 10.5155 23.7599 10.644 23.7118C10.7791 23.6625 10.9152 23.6751 11.0512 23.7505C11.1434 23.8029 11.2023 23.8731 11.2259 23.9622C11.2495 24.0513 11.2356 24.1404 11.183 24.2306C11.0823 24.4025 10.927 24.4369 10.7148 24.3375C10.6087 24.2872 10.5369 24.2924 10.5005 24.3563C10.4287 24.4778 10.5444 24.6896 10.8488 24.9883C11.0094 25.1454 11.1112 25.2523 11.1562 25.3079C11.2698 25.4421 11.3406 25.5689 11.3674 25.6852C11.5003 25.55 11.6545 25.4756 11.8313 25.463C11.8614 25.4599 12.0778 25.4609 12.4807 25.4651L13.2351 25.4725C13.3434 25.4725 13.4398 25.4504 13.5224 25.4043C13.606 25.3593 13.6744 25.2901 13.7291 25.1957L14.7247 25.7512ZM11.7767 31.5102L11.7456 31.595C11.0394 31.4861 10.5819 31.7124 10.3751 32.2741L8.81806 32.4943C8.65412 32.5173 8.55445 32.5372 8.52017 32.553C8.4548 32.5855 8.39801 32.6599 8.34871 32.7773L9.50388 33.186C9.6689 33.2447 9.79214 33.2436 9.87358 33.1839C9.93359 33.1388 9.99681 33.0287 10.0611 32.8558L10.1479 32.8862L9.50817 34.6176L9.42029 34.5872C9.48566 34.4006 9.50388 34.2686 9.47495 34.192C9.4428 34.1041 9.33458 34.0286 9.1524 33.9636L6.87421 33.1577C6.68132 33.0895 6.54631 33.0644 6.46809 33.0812C6.36521 33.1042 6.2827 33.2017 6.21947 33.3736L6.19269 33.4449L6.10589 33.4145L6.74669 31.6831L6.83349 31.7135L6.81207 31.7701C6.75312 31.9325 6.74348 32.0531 6.78634 32.1296C6.82813 32.2082 6.9353 32.2773 7.10782 32.3381L8.12368 32.6976C8.19655 32.4985 8.23727 32.3821 8.2437 32.3496C8.2737 32.2165 8.25763 32.1013 8.19548 32.0028C8.1419 31.9168 8.01652 31.8088 7.81827 31.6757C7.6211 31.5416 7.47858 31.4379 7.39393 31.3614C7.24284 31.224 7.14747 31.0815 7.10782 30.9337C7.07246 30.8038 7.08424 30.6602 7.1421 30.5019C7.19569 30.3573 7.28141 30.2504 7.40036 30.1813C7.52574 30.109 7.66183 30.0995 7.80863 30.1519C7.90829 30.1876 7.97795 30.2472 8.01759 30.33C8.05617 30.4149 8.05832 30.5051 8.02188 30.6026C7.95329 30.7881 7.8065 30.8489 7.57932 30.786C7.46573 30.7535 7.39715 30.7713 7.37143 30.8395C7.32214 30.9725 7.47323 31.1601 7.82471 31.4054C8.0101 31.5333 8.13011 31.6212 8.18369 31.6684C8.31871 31.7816 8.41086 31.8948 8.45802 32.0059C8.5641 31.8497 8.70341 31.7512 8.87594 31.7082C8.90487 31.6998 9.11811 31.6652 9.51567 31.6023L10.2604 31.484C10.3676 31.4662 10.4587 31.4274 10.5326 31.3687C10.6065 31.3111 10.6623 31.2303 10.6998 31.1287L11.7767 31.5102ZM6.72848 38.4628L6.80778 38.0028C6.89243 37.5059 7.04459 37.1601 7.26106 36.9652C7.47965 36.7702 7.73683 36.6969 8.03581 36.7461C8.23941 36.7796 8.40444 36.8656 8.53303 37.0039C8.66055 37.1413 8.7452 37.3027 8.78914 37.486C8.83092 37.6705 8.82342 37.9273 8.76663 38.2574L8.44623 40.125L8.35407 40.1103C8.38836 39.8934 8.38193 39.7509 8.33586 39.6817C8.28977 39.6115 8.17297 39.5611 7.9833 39.5297L5.61618 39.1409C5.36113 39.099 5.19933 39.0979 5.13396 39.1399C5.0686 39.1807 5.01502 39.3097 4.97429 39.5276L4.88321 39.5129L5.19076 37.7177L5.28292 37.7334C5.25612 37.898 5.25291 38.0112 5.27327 38.0687C5.29469 38.1285 5.32578 38.1725 5.36542 38.2029C5.40615 38.2343 5.51437 38.2637 5.69011 38.292L6.72848 38.4628ZM6.95994 38.5016L8.03581 38.6777C8.20511 38.7059 8.32943 38.7028 8.40658 38.6672C8.48373 38.6326 8.53303 38.553 8.55445 38.4272C8.58875 38.228 8.54588 38.0656 8.42479 37.9409C8.30371 37.8162 8.13975 37.7376 7.93294 37.703C7.73256 37.6705 7.55681 37.6894 7.40572 37.7585C7.25356 37.8288 7.15068 37.9179 7.09603 38.0268C7.04138 38.1337 6.9953 38.292 6.95994 38.5016ZM9.20919 35.1364L9.30028 35.1521L8.98845 36.9673L8.89736 36.9526L8.91665 36.8394C8.93486 36.7304 8.93059 36.6445 8.90272 36.5848C8.87594 36.524 8.83736 36.481 8.78699 36.4569C8.73876 36.4317 8.63054 36.4055 8.46444 36.3783L6.11232 35.9916C5.94515 35.9643 5.83585 35.9538 5.78441 35.9591C5.73405 35.9643 5.68369 35.9937 5.63332 36.0461C5.58403 36.0985 5.54973 36.1781 5.53152 36.2829L5.51223 36.3961L5.42114 36.3814L5.73298 34.5652L5.82406 34.5809L5.80478 34.6941C5.78548 34.802 5.79084 34.8879 5.81764 34.9487C5.84549 35.0085 5.88406 35.0525 5.93336 35.0766C5.98266 35.1018 6.09088 35.128 6.25698 35.1552L8.60804 35.5409C8.7752 35.5692 8.88557 35.5796 8.93595 35.5744C8.98738 35.5681 9.03774 35.5398 9.0881 35.4864C9.13739 35.4339 9.17062 35.3554 9.18884 35.2496L9.20919 35.1364ZM4.78034 40.539L5.75333 40.6113L5.74691 40.7014C5.51759 40.7402 5.3515 40.7894 5.24862 40.8492C5.14468 40.91 5.05895 40.997 4.99144 41.1112C4.95501 41.1741 4.92929 41.2883 4.91643 41.4528L4.89606 41.7191L7.68218 41.9256C7.86758 41.9391 7.98438 41.938 8.03259 41.9223C8.08081 41.9067 8.12475 41.87 8.16333 41.8155C8.20297 41.761 8.22655 41.6845 8.23405 41.5849L8.24263 41.4696L8.33479 41.4769L8.19334 43.312L8.1001 43.3057L8.10975 43.1895C8.11725 43.0878 8.10439 43.005 8.07225 42.94C8.04974 42.8939 8.0101 42.8551 7.95115 42.8247C7.91044 42.8037 7.79899 42.7849 7.61683 42.7723L4.8307 42.5659L4.81142 42.8205C4.79213 43.0564 4.8307 43.2313 4.925 43.3466C5.05681 43.507 5.25398 43.616 5.51652 43.6757L5.50794 43.7774L4.53495 43.7051L4.78034 40.539ZM4.5896 44.7468L5.56581 44.7321L5.56795 44.8233C5.34291 44.882 5.18218 44.946 5.08467 45.0151C4.98715 45.0843 4.91 45.1786 4.85428 45.298C4.82321 45.3641 4.8082 45.4804 4.81142 45.6461L4.8157 45.9122L7.60824 45.8703C7.79471 45.8671 7.91151 45.8556 7.95758 45.8357C8.00367 45.8158 8.04331 45.776 8.0776 45.7184C8.11189 45.6597 8.12797 45.5811 8.1269 45.4815L8.12475 45.3662L8.2169 45.3651L8.24691 47.2055L8.15368 47.2065L8.15154 47.0903C8.15047 46.9896 8.13011 46.9079 8.09153 46.846C8.06582 46.802 8.02188 46.7674 7.9608 46.7423C7.91794 46.7244 7.80435 46.7161 7.62218 46.7192L4.82856 46.7611L4.83284 47.0169C4.83606 47.2537 4.89071 47.4245 4.99573 47.5304C5.14147 47.6782 5.3472 47.7694 5.6151 47.806L5.61618 47.9066L4.63996 47.9223L4.5896 44.7468ZM4.93358 49.18C4.96572 49.3686 5.01822 49.485 5.08895 49.529C5.16075 49.5741 5.28183 49.5825 5.45115 49.5552L7.93187 49.1475C8.12261 49.116 8.24263 49.0679 8.28977 49.004C8.33693 48.94 8.34657 48.8101 8.3155 48.613L8.40765 48.5983L8.70877 50.3507L8.61661 50.3654C8.59304 50.226 8.5641 50.1285 8.53089 50.0761C8.49659 50.0226 8.44944 49.988 8.39051 49.9712C8.33157 49.9555 8.23191 49.9576 8.09153 49.9807L5.29362 50.4407L5.43722 51.2781L6.50237 51.1031C6.94815 51.0297 7.28998 50.9837 7.52681 50.968C7.76363 50.9502 7.99616 50.9732 8.22226 51.036C8.44837 51.0989 8.6284 51.1974 8.75913 51.3327C8.88986 51.4679 8.97238 51.6272 9.00452 51.8137C9.03238 51.9814 9.01096 52.1197 8.93595 52.2267C8.86093 52.3336 8.75698 52.3985 8.62411 52.4205C8.51267 52.4393 8.41729 52.4257 8.33693 52.3806C8.25656 52.3357 8.20619 52.2592 8.18798 52.1522C8.15475 51.9552 8.26085 51.8252 8.50731 51.7634C8.61875 51.7361 8.66698 51.6837 8.65304 51.6073C8.63482 51.4993 8.54052 51.3976 8.37229 51.3002C8.20298 51.2016 7.98438 51.1545 7.71862 51.1576C7.4518 51.1618 7.07245 51.2037 6.57953 51.2844L5.9055 51.3955C5.71262 51.427 5.58617 51.4595 5.52616 51.4941C5.46508 51.5276 5.42543 51.58 5.40829 51.6503C5.39007 51.7214 5.39436 51.8409 5.41901 52.0107L5.32792 52.0265L4.84142 49.1946L4.93358 49.18ZM5.73084 53.7536C5.78013 53.8615 5.83906 53.937 5.90871 53.9831C5.98909 54.0366 6.22376 54.1121 6.61381 54.2106L8.09582 54.5899L8.27156 54.5407L8.03474 53.741L8.22869 53.6854L8.46552 54.4851L8.93701 54.3509C9.07953 54.3111 9.16419 54.2839 9.18991 54.2723C9.2735 54.2316 9.326 54.1697 9.34743 54.0859C9.36565 54.023 9.36243 53.9464 9.33564 53.8553L9.27884 53.6655L9.36779 53.6394L9.93251 55.5416L9.84357 55.5668L9.79107 55.3896C9.76213 55.2932 9.72034 55.2198 9.66676 55.1684C9.62711 55.1318 9.57675 55.1108 9.51245 55.1014C9.46424 55.0951 9.35279 55.1171 9.17919 55.1663L8.70769 55.3005L8.94451 56.0991L8.75055 56.1547L8.51374 55.355L8.48159 55.3645L7.22569 56.5875C7.03066 56.7772 6.92029 56.8903 6.89457 56.927C6.78956 57.0664 6.75955 57.209 6.80028 57.3557L6.71133 57.3809L6.22804 55.7532L6.31699 55.7281L6.3395 55.8004C6.392 55.9776 6.4638 56.053 6.55595 56.0268C6.61488 56.01 6.75205 55.8989 6.96637 55.6924L7.92866 54.7514L6.7049 54.4348C6.39522 54.3593 6.20019 54.3321 6.12089 54.3551C6.00409 54.3876 5.9773 54.5312 6.03838 54.788L5.94944 54.8132L5.64189 53.7798L5.73084 53.7536ZM12.1261 58.6448L12.1689 58.7245C11.6139 59.1646 11.4788 59.6477 11.766 60.1749L10.8906 61.4524C10.7984 61.5866 10.7469 61.6725 10.7351 61.7071C10.7158 61.7774 10.7351 61.8675 10.7909 61.9828L11.8742 61.4178C12.0296 61.3372 12.1121 61.2471 12.1207 61.1475C12.1271 61.0741 12.0864 60.9557 11.9975 60.7922L12.0789 60.7493L12.964 62.3737L12.8826 62.4167C12.7851 62.2447 12.6961 62.1441 12.619 62.1127C12.5311 62.0781 12.4003 62.1054 12.23 62.1944L10.0911 63.3086C9.91108 63.4028 9.8007 63.4835 9.76106 63.5516C9.70963 63.6418 9.72892 63.7665 9.81678 63.929L9.85322 63.9949L9.77178 64.0379L8.88665 62.4125L8.96809 62.3705L8.99701 62.424C9.07953 62.5749 9.16526 62.663 9.25206 62.6838C9.33992 62.706 9.46424 62.6745 9.62604 62.5896L10.5787 62.0928C10.4769 61.9063 10.4158 61.7994 10.3954 61.7732C10.3151 61.661 10.2165 61.596 10.0997 61.5751C9.99896 61.5562 9.83286 61.5751 9.59926 61.6296C9.36565 61.683 9.19098 61.7166 9.07631 61.727C8.87058 61.7449 8.69912 61.7187 8.55981 61.6484C8.43765 61.5876 8.33586 61.4818 8.25549 61.3341C8.18155 61.1978 8.15797 61.0636 8.18476 60.9326C8.21369 60.7932 8.29728 60.6874 8.43551 60.6162C8.52981 60.5669 8.62196 60.5564 8.71091 60.5847C8.802 60.612 8.87057 60.6717 8.92094 60.7629C9.01631 60.9379 8.9638 61.0846 8.76341 61.2072C8.66269 61.268 8.63054 61.3299 8.66483 61.3938C8.73234 61.5185 8.97666 61.5352 9.3978 61.444C9.61961 61.3949 9.76642 61.3666 9.83821 61.3592C10.015 61.3383 10.1618 61.3467 10.2776 61.3864C10.2304 61.2041 10.2497 61.0374 10.3322 60.8844C10.3461 60.8571 10.4619 60.6791 10.6805 60.3478L11.0898 59.7274C11.1477 59.6383 11.1798 59.5471 11.1841 59.4539C11.1895 59.3617 11.1659 59.2663 11.1144 59.1719L12.1261 58.6448ZM13.2598 64.7349L13.9477 65.7725L14.3292 65.7138C14.4556 65.6918 14.5521 65.6603 14.6164 65.6184C14.7032 65.5639 14.7439 65.4905 14.7407 65.3983C14.7386 65.3427 14.6925 65.2348 14.6025 65.0724L14.6796 65.0231L15.3344 66.0083L15.2561 66.0585C15.1693 65.9632 15.0643 65.9035 14.9454 65.8825C14.8254 65.8616 14.6153 65.8741 14.3152 65.9224L11.1948 66.3971L11.167 66.3552L12.9426 63.7089C13.1129 63.4563 13.2073 63.2771 13.2255 63.1723C13.2405 63.0926 13.2212 63.0056 13.1676 62.9103L13.2458 62.861L14.1975 64.2947L14.1192 64.344L14.0806 64.2853C14.0035 64.17 13.9327 64.0998 13.8695 64.0746C13.8245 64.0578 13.7784 64.0641 13.7334 64.0924C13.7055 64.1102 13.6798 64.1322 13.6573 64.1595C13.6466 64.17 13.6038 64.2287 13.5309 64.3325L13.2598 64.7349ZM13.1408 64.9099L12.4014 66.0083L13.7355 65.805L13.1408 64.9099ZM15.1297 69.8399L14.2532 70.5107L14.1921 70.4352C14.28 70.3429 14.3002 70.2675 14.2532 70.2077C14.2307 70.1794 14.1782 70.1417 14.0956 70.0945C13.877 69.9677 13.7023 69.8221 13.5695 69.6565C13.3412 69.3714 13.2373 69.0958 13.2566 68.8306C13.2769 68.5645 13.3809 68.359 13.5684 68.2154C13.6562 68.1483 13.7613 68.0991 13.8824 68.0687C14.0045 68.0383 14.1385 68.0404 14.2864 68.0771C14.4331 68.1127 14.6153 68.2112 14.8329 68.3726C14.6464 68.0383 14.5789 67.7564 14.6271 67.5258C14.6764 67.2952 14.7836 67.1161 14.9497 66.9882C15.0943 66.8781 15.2626 66.8152 15.4555 66.8006C15.6472 66.7869 15.8412 66.832 16.0331 66.9379C16.2249 67.0427 16.4177 67.2156 16.6096 67.4545C16.7939 67.6862 16.9086 67.8937 16.9513 68.0771C16.9942 68.2615 16.9867 68.4628 16.9247 68.6818L16.7703 68.6608C16.8282 68.3108 16.7725 68.0309 16.6053 67.8224C16.4681 67.6505 16.302 67.5583 16.1092 67.5468C15.9152 67.5352 15.7265 67.5992 15.5434 67.7407C15.403 67.8476 15.3065 67.9722 15.254 68.1137C15.2015 68.2542 15.194 68.3821 15.2315 68.4963C15.2701 68.6094 15.3558 68.7541 15.4909 68.9323L15.3065 69.0738C15.2701 69.0256 15.239 68.9847 15.2133 68.9532C15.06 68.7614 14.8961 68.6671 14.7236 68.6702C14.551 68.6723 14.3603 68.7541 14.1514 68.9145C13.952 69.0675 13.8427 69.2173 13.8223 69.3661C13.802 69.515 13.8373 69.645 13.9274 69.7582C14.0506 69.9111 14.2114 69.9876 14.4106 69.9908C14.6089 69.9918 14.8254 69.9121 15.0589 69.7519L15.1297 69.8399ZM17.9394 70.542L18.8181 71.4318L19.1813 71.3029C19.3014 71.2568 19.3893 71.2076 19.445 71.1552C19.5189 71.086 19.5447 71.0053 19.5232 70.9152C19.5104 70.8617 19.4439 70.7642 19.3239 70.6217L19.3903 70.5588L20.2251 71.4035L20.1587 71.4664C20.0547 71.3899 19.94 71.3511 19.8189 71.3532C19.6968 71.3542 19.4932 71.4067 19.2081 71.5104L16.2388 72.5605L16.2035 72.5238L17.4272 69.5946C17.5451 69.3148 17.6029 69.121 17.6008 69.0151C17.5987 68.9333 17.5633 68.8526 17.4926 68.7677L17.559 68.7048L18.7731 69.9342L18.7067 69.997L18.6574 69.9467C18.5598 69.8483 18.4762 69.7927 18.4087 69.7802C18.3605 69.7718 18.3176 69.7865 18.2791 69.823C18.2556 69.8452 18.2341 69.8713 18.217 69.9027C18.2084 69.9153 18.1773 69.9803 18.1269 70.0966L17.9394 70.542ZM17.8579 70.7359L17.3457 71.9516L18.6156 71.5031L17.8579 70.7359ZM21.2752 70.9581L21.3481 71.0147C21.0212 71.6373 21.0984 72.1319 21.5796 72.4997L21.3074 74.0152C21.2795 74.1746 21.2677 74.2731 21.2709 74.3098C21.2827 74.381 21.3374 74.4564 21.4371 74.5392L22.1936 73.5939C22.3018 73.4587 22.3393 73.3434 22.3071 73.2491C22.2814 73.1789 22.1947 73.0867 22.0457 72.9725L22.1036 72.9012L23.5855 74.0362L23.5288 74.1075C23.3681 73.989 23.2459 73.9314 23.1612 73.9345C23.0669 73.9377 22.9586 74.0142 22.8398 74.163L21.346 76.0285C21.2195 76.1868 21.1531 76.3031 21.1445 76.3817C21.1348 76.4844 21.2045 76.5913 21.3513 76.7045L21.4124 76.7506L21.3556 76.8219L19.8736 75.6869L19.9304 75.6156L19.9786 75.6534C20.1169 75.7591 20.2316 75.8052 20.3193 75.7895C20.4094 75.7748 20.5101 75.6974 20.6226 75.5559L21.2892 74.7247C21.1177 74.5937 21.018 74.5203 20.988 74.5036C20.8681 74.4344 20.7513 74.4135 20.6355 74.4396C20.5358 74.4637 20.3922 74.5455 20.2005 74.6881C20.0097 74.8296 19.8639 74.9302 19.7632 74.9847C19.5822 75.0821 19.4139 75.1261 19.2585 75.1177C19.1213 75.1104 18.9841 75.0539 18.8492 74.9512C18.7249 74.8558 18.6488 74.7426 18.6188 74.6115C18.5877 74.4721 18.6209 74.3433 18.7174 74.2228C18.7828 74.141 18.8621 74.0938 18.9563 74.0844C19.0495 74.0739 19.1374 74.1012 19.2221 74.1651C19.3807 74.2867 19.3936 74.4417 19.2617 74.6336C19.1942 74.7279 19.191 74.7981 19.2489 74.8432C19.3625 74.9302 19.5929 74.8484 19.94 74.5979C20.1222 74.4658 20.2444 74.3821 20.3075 74.3465C20.4597 74.2574 20.598 74.207 20.7202 74.1976C20.6023 74.0498 20.5498 73.8894 20.5626 73.7166C20.5637 73.6862 20.5958 73.4776 20.6591 73.0888L20.7759 72.3594C20.792 72.2546 20.7834 72.1581 20.7491 72.0711C20.7159 71.9841 20.6548 71.9076 20.568 71.8405L21.2752 70.9581ZM45.1287 17.6615C46.1414 17.3606 47.5879 18.7587 46.6857 20.183C45.9453 21.3516 44.0807 21.0288 43.8406 19.5385C43.6756 18.5136 44.2296 17.9287 45.1287 17.6615ZM32.3983 70.2685C35.584 68.3391 34.3207 63.5873 30.2915 63.7917C28.4966 63.8829 26.8604 65.7421 27.1636 67.6453C27.3286 68.6807 27.8623 69.6292 28.6531 70.0725C28.9863 70.2601 29.0549 70.365 29.3657 70.496C29.4236 70.52 29.4407 70.5284 29.4429 70.5305C29.4504 70.5326 29.4665 70.5368 29.4997 70.5472C29.9765 70.6961 30.9387 70.8009 31.4553 70.6584C31.5452 70.6321 31.6685 70.6007 31.8207 70.563C31.9825 70.5232 31.8925 70.5556 32.005 70.5043L32.3983 70.2685ZM42.5022 68.2186C43.0026 66.5176 42.2012 64.9256 40.702 64.1239L40.4019 63.9825C40.3151 63.9531 40.1287 63.9479 40.0591 63.9112C40.0269 63.8944 40.2465 63.8703 39.8715 63.8189C38.9102 63.6879 38.0895 63.7927 37.2536 64.28C35.5851 65.2527 35.1254 67.5541 36.1349 69.0968L36.7393 69.822L38.142 70.5818C39.9873 71.1374 41.9675 70.0358 42.5022 68.2186ZM55.3559 67.7711C55.4524 67.1286 55.4052 66.7597 55.2477 66.2346C54.9915 65.3804 54.7344 65.1332 54.2307 64.6438C54.0658 64.4844 53.9596 64.3922 53.7217 64.2633C53.4099 64.0924 52.8805 63.8472 52.4508 63.8032C48.7893 63.4322 47.2805 67.266 49.1664 69.4751L49.6818 69.9792L49.7151 70.0096C50.0462 70.3 50.9206 70.651 51.3536 70.7034C52.4348 70.8324 53.4271 70.475 54.0936 69.9499C54.698 69.4751 55.2145 68.7059 55.3559 67.7711ZM59.3915 63.8462C58.7679 64.1522 58.1185 64.2748 57.4638 65.2107C55.1437 68.5288 59.2554 72.2315 62.3008 70.1249C63.9468 68.9868 64.3904 66.9148 63.2042 65.2307C62.9202 64.8281 62.7445 64.6794 62.3405 64.3712C61.9805 64.0956 61.5721 63.9479 61.0932 63.8336C60.8649 63.7791 59.5683 63.7592 59.3915 63.8462ZM56.9997 52.758C56.945 55.8937 57.034 59.282 57.005 62.4638L62.423 62.4471L62.4187 46.9592C62.0791 47.062 62.4616 46.8722 62.0351 47.2537C61.2443 47.9601 59.383 50.0027 58.4571 50.9187C58.2534 51.1188 58.0295 51.3641 57.8055 51.5978C57.124 52.3105 57.0093 52.2246 56.9997 52.758ZM52.813 56.4554L48.5803 61.9786C48.4495 62.142 48.3627 62.2091 48.3156 62.4544L53.6231 62.4439C53.6413 61.29 53.6306 60.134 53.6306 58.9791C53.6306 58.6689 53.7314 55.8738 53.5374 55.618C53.3028 55.7165 52.9587 56.251 52.813 56.4554ZM37.1282 56.0247L37.1454 62.445C38.6135 62.5026 40.9806 62.4596 42.4658 62.4512C42.4004 62.1913 42.3693 62.2301 42.1615 61.9461C42.0436 61.7826 41.9311 61.6358 41.8304 61.508L37.6018 55.9734C37.4508 55.7711 37.4187 55.6903 37.2279 55.6202C37.1079 55.7794 37.1325 55.7669 37.1282 56.0247ZM33.7602 62.4544L33.7699 52.9509C33.7699 52.2246 33.6992 52.3649 33.307 51.9541L30.6741 49.2533C30.3097 48.8855 28.7324 47.0756 28.3477 46.9529L28.3455 61.7428L28.3509 62.4638L33.7602 62.4544ZM59.3808 36.8362H33.5684C31.9439 36.8362 29.9937 36.6602 28.6649 37.4189C28.2823 37.638 27.9759 38.0289 27.7894 38.3957C26.9054 40.1428 28.1988 42.5847 29.4032 43.9681L34.6508 49.6328L34.8673 49.8612L37.9491 53.0629C38.248 53.3742 38.5642 53.6949 38.8577 53.9968C40.0601 55.2345 42.8248 57.8829 44.1054 58.7842L44.2585 58.8879L44.3689 58.9696C44.8062 59.3019 45.3784 59.5817 46.0278 59.4969L45.9603 59.4508C46.3856 59.3889 46.1425 59.4183 46.4939 59.1971L46.5753 59.152L47.6673 58.323L51.7061 54.3646C52.7777 53.26 53.9329 51.8766 54.8586 50.9145L56.1018 49.4892L56.1318 49.4567C56.4361 49.1171 56.6868 48.8331 56.9654 48.5124L61.0835 43.5667C61.3482 43.2073 61.6396 42.8687 61.8883 42.5282C62.4241 41.7956 62.8816 41.1741 63.1474 40.1784C63.471 38.9669 63.0959 37.9462 62.4348 37.4043C61.6761 36.7807 60.5745 36.8362 59.3808 36.8362ZM40.2176 45.5716C39.7547 45.0791 39.3786 44.7122 39.1953 44.0499C38.6756 42.1582 41.3074 42.613 42.7498 42.613H50.4555C50.6163 42.613 50.9291 42.6057 51.076 42.6371L51.1649 42.6654C51.571 42.8268 51.7221 43.5133 51.5624 43.9084C51.3321 44.4807 50.4277 45.5475 49.9551 46.1229L49.6111 46.5431L49.5832 46.5777L49.5254 46.6437C49.4762 46.7003 49.4183 46.7569 49.3722 46.8041C48.9135 47.2621 48.621 47.6509 48.1677 48.1393L46.9278 49.4347C46.704 49.6674 46.5582 49.8245 46.2699 50.0509C45.5198 50.6399 45.4834 50.9261 43.9478 49.4577C43.0669 48.614 42.3147 47.8154 41.435 46.8901C41.3214 46.7706 41.2367 46.6836 41.1274 46.5651L40.9741 46.3933L40.2176 45.5716ZM47.4616 26.2449C42.857 25.2565 38.7014 27.6292 37.0103 31.3876C36.6525 32.1829 36.1274 33.9091 36.2217 35.0546L54.5276 35.0504C54.5822 33.6638 54.1664 32.2521 53.7164 31.3006C52.438 28.5945 50.4888 27.2331 47.9127 26.3643C47.7819 26.3204 47.5879 26.2721 47.4616 26.2449ZM38.8482 16.3609C38.6606 17.4267 39.5339 18.4402 40.1705 19.1759L43.3713 22.9541C43.8074 23.4319 45.0429 25.0218 45.7384 24.7294C46.1607 24.5501 48.1227 22.2131 48.5846 21.6126L48.725 21.4354C49.4333 20.5487 51.6803 17.7202 51.885 16.9048C52.0308 16.3231 51.8915 15.6681 51.3246 15.4962C50.9849 15.3935 42.8173 15.4564 42.1722 15.4564C41.4832 15.4564 39.9915 15.3536 39.4697 15.5738C39.1128 15.7237 38.921 15.949 38.8482 16.3609ZM44.7912 80.3432C44.5393 80.6671 44.3743 81.1922 44.3732 81.1922C44.37 81.1827 44.3614 81.2236 44.3496 81.2372C44.0111 81.2205 44.1953 81.1869 43.8921 81.1345C42.588 80.9081 40.4448 80.8883 39.4225 81.5695C39.2328 81.6962 38.9649 81.8776 38.7828 82.0715C38.442 82.4351 38.1645 82.9916 38.2031 83.7231C38.4549 83.72 38.5331 83.547 38.771 83.4884C39.4258 83.3249 39.3111 83.9506 40.5584 84.025C41.9568 84.1099 42.0983 83.4864 41.7082 82.4309L41.9525 82.2894C42.6952 82.0537 43.9167 82.2884 44.5993 82.9402C44.7301 83.065 44.8223 83.1918 44.9519 83.3553C45.2787 83.7693 45.3881 84.0869 45.506 84.2283C45.8713 83.6833 45.9967 83.2505 46.6632 82.7412C47.2847 82.2663 47.8848 82.191 48.8449 82.2475L49.1471 82.3607C49.1846 82.3733 49.2393 82.4215 49.25 82.4047C49.2597 82.389 49.2854 82.4194 49.3004 82.4309C48.9103 83.5439 49.1118 84.1676 50.5831 84.0187C51.0492 83.9716 51.45 83.7504 51.7661 83.5261C52.2204 83.2033 52.3908 83.7252 52.7949 83.721C52.8558 82.87 52.4562 82.2161 51.9601 81.8304C51.4061 81.3997 50.7899 81.1628 49.9251 81.0559L49.9358 81.0202C49.3283 80.9731 48.7443 80.9804 48.1356 81.0024C47.6072 81.0213 47.0286 81.2425 46.5968 81.2205C46.5164 80.9919 46.5646 80.927 46.4478 80.6975C46.3899 80.5833 46.4028 80.6095 46.3224 80.5046L46.0235 80.1725C45.6945 79.8161 45.8145 79.9681 45.506 79.7249L45.3881 79.8025L45.2766 79.8811C45.1876 79.9492 45.2669 79.8874 45.1716 79.967L45.1019 80.0268C44.9658 80.1421 44.8929 80.2113 44.7912 80.3432ZM45.5006 0C58.0649 0 69.4397 4.98026 77.6738 13.0333C85.9079 21.0865 91 32.2112 91 44.4994C91 56.7877 85.9079 67.9125 77.6738 75.9656C69.4397 84.0187 58.0649 89 45.5006 89C32.9362 89 21.5614 84.0187 13.3273 75.9656C5.09324 67.9125 0 56.7877 0 44.4994C0 32.2112 5.09324 21.0865 13.3273 13.0333C21.5614 4.98026 32.9362 0 45.5006 0ZM76.3868 14.292C68.4828 6.56069 57.5622 1.77956 45.5006 1.77956C33.4388 1.77956 22.5183 6.56069 14.6143 14.292C6.70919 22.0223 1.81955 32.7029 1.81955 44.4994C1.81955 56.2971 6.70919 66.9766 14.6143 74.708C22.5183 82.4383 33.4388 87.2205 45.5006 87.2205C57.5622 87.2205 68.4828 82.4383 76.3868 74.708C84.2919 66.9766 89.1805 56.2971 89.1805 44.4994C89.1805 32.7029 84.2919 22.0223 76.3868 14.292ZM68.9553 21.5602C62.9534 15.6891 54.6605 12.0576 45.5006 12.0576C36.3406 12.0576 28.0477 15.6891 22.0446 21.5602C16.0427 27.4302 12.3296 35.5409 12.3296 44.4994C12.3296 53.4581 16.0427 61.5688 22.0446 67.4398C28.0477 73.3109 36.3406 76.9414 45.5006 76.9414C54.6605 76.9414 62.9534 73.3109 68.9553 67.4398C74.9584 61.5688 78.6715 53.4581 78.6715 44.4994C78.6715 35.5409 74.9584 27.4302 68.9553 21.5602Z" fill="white"/>
</svg>
