<svg width="28" height="28" viewBox="0 0 28 28" fill="none" xmlns="http://www.w3.org/2000/svg">
<path fill-rule="evenodd" clip-rule="evenodd" d="M19 12C19 15.866 15.866 19 12 19C8.13401 19 5 15.866 5 12C5 8.13405 8.13401 5.00004 12 5.00004C15.866 5.00004 19 8.13405 19 12ZM17.6569 17.6569C16.2091 19.1046 14.2091 20 12 20C7.58172 20 4 16.4183 4 12C4 7.58176 7.58172 4.00004 12 4.00004C16.4183 4.00004 20 7.58176 20 12C20 13.8487 19.3729 15.551 18.3199 16.9057L24.7071 23.2929L24 24L17.6569 17.6569Z" fill="white"/>
</svg>
